  <svg width="187" height="30" viewBox="0 0 187 30" fill="none" xmlns="http://www.w3.org/2000/svg">
                <path d="M173.555 24.6791C173.425 24.6791 173.31 24.6264 173.209 24.5259C173.108 24.4255 173.055 24.3106 173.055 24.1814V11.4107C173.055 11.2624 173.108 11.1428 173.209 11.0518C173.31 10.9609 173.425 10.9131 173.555 10.9131H175.916C176.065 10.9131 176.185 10.9609 176.276 11.0518C176.368 11.1428 176.416 11.2624 176.416 11.4107V13.4012C176.416 13.7505 176.656 13.9275 177.137 13.9275H184.138C184.268 13.9275 184.378 13.9706 184.47 14.0519C184.561 14.1333 184.609 14.2385 184.609 14.3725V16.7506C184.609 16.8798 184.561 16.985 184.47 17.0712C184.378 17.1525 184.268 17.1956 184.138 17.1956H177.055C176.627 17.1956 176.416 17.387 176.416 17.7745V20.789C176.416 20.9182 176.473 21.0378 176.584 21.1479C176.695 21.2579 176.815 21.3153 176.945 21.3153H186.499C186.648 21.3153 186.768 21.3632 186.859 21.4541C186.951 21.545 186.999 21.6646 186.999 21.8129V24.191C186.999 24.3202 186.951 24.435 186.859 24.5355C186.768 24.636 186.648 24.6886 186.499 24.6886H173.555V24.6791Z" fill="#2C2B29"/>
                <path d="M173.555 8.72917C173.425 8.72917 173.31 8.68132 173.209 8.57605C173.108 8.47557 173.055 8.35117 173.055 8.20284V5.82477C173.055 5.67644 173.108 5.55682 173.209 5.46591C173.31 5.375 173.425 5.32715 173.555 5.32715H186.441C186.59 5.32715 186.715 5.37978 186.816 5.48026C186.917 5.58074 186.97 5.69558 186.97 5.82477V8.20284C186.97 8.33203 186.917 8.45165 186.816 8.5617C186.715 8.67175 186.59 8.72917 186.441 8.72917H173.555Z" fill="#2C2B29"/>
                <path d="M160.972 24.6203H160.948H160.943H160.933C160.784 24.6107 160.688 24.5437 160.65 24.4241C160.63 24.3763 160.616 24.3284 160.616 24.2662V9.34231C160.616 9.17484 160.554 9.02651 160.424 8.90211C160.294 8.77292 160.14 8.71071 159.962 8.70593H155.611C155.519 8.70593 155.433 8.66765 155.361 8.59588C155.288 8.52411 155.25 8.42841 155.25 8.31836V5.7489C155.25 5.63885 155.288 5.54794 155.361 5.47138C155.433 5.39961 155.519 5.36133 155.611 5.36133H169.55C169.641 5.36133 169.728 5.39961 169.8 5.47138C169.872 5.54315 169.911 5.63885 169.911 5.7489V8.31836C169.911 8.42841 169.872 8.51932 169.8 8.59588C169.728 8.67244 169.641 8.70593 169.55 8.70593H165.314C165.131 8.70593 164.977 8.77292 164.852 8.90211C164.722 9.0313 164.66 9.17963 164.66 9.34231V24.2662C164.66 24.3236 164.65 24.3763 164.626 24.4241C164.583 24.5437 164.492 24.6107 164.343 24.6203H164.338H164.328H161.02H160.972Z" fill="#2C2B29"/>
                <path d="M145.876 15.5586H149.222C149.391 15.5586 149.525 15.5012 149.626 15.3768C149.727 15.2571 149.751 15.1136 149.693 14.9509L149.179 13.0944C149.165 13.0705 149.155 13.0418 149.145 13.0178L148.116 9.31438C148.078 9.16605 147.986 9.03686 147.837 8.92681C147.722 8.84068 147.607 8.78805 147.491 8.76891H147.486H147.482H147.472H147.467H147.462H147.453H147.443H147.429H147.183H147.169H147.159H147.15H147.14H147.135H147.131H147.126H147.121C147.006 8.78805 146.89 8.84068 146.775 8.92681C146.626 9.03686 146.534 9.16605 146.496 9.31438L145.467 13.0178C145.457 13.0466 145.448 13.0705 145.433 13.0944L144.924 14.9509C144.866 15.1184 144.89 15.2571 144.991 15.3768C145.092 15.4964 145.227 15.5586 145.395 15.5586H145.9H145.876ZM152.833 24.6785C152.703 24.6785 152.583 24.6354 152.473 24.5541C152.362 24.4727 152.285 24.3723 152.251 24.2622L150.862 19.1233C150.804 18.9558 150.703 18.8171 150.559 18.707C150.41 18.597 150.251 18.5395 150.088 18.5395H144.515C144.347 18.5395 144.193 18.597 144.044 18.707C143.895 18.8171 143.794 18.9558 143.741 19.1233L142.351 24.2622C142.313 24.3723 142.241 24.468 142.13 24.5541C142.019 24.6354 141.899 24.6785 141.769 24.6785H138.937C138.716 24.6785 138.605 24.5684 138.605 24.3483V24.2957L143.717 5.72097C143.755 5.61092 143.837 5.51522 143.967 5.42909C144.044 5.38125 144.116 5.34775 144.188 5.32383C144.226 5.31426 144.265 5.30469 144.303 5.30469H150.294C150.333 5.30469 150.371 5.30947 150.41 5.32383C150.482 5.34297 150.554 5.37646 150.631 5.42909C150.761 5.51044 150.843 5.60613 150.881 5.72097L155.992 24.2957V24.3483C155.992 24.5684 155.882 24.6785 155.661 24.6785H152.828H152.833Z" fill="#2C2B29"/>
                <path d="M130.286 24.6785H130.277C130.094 24.6785 129.959 24.6546 129.868 24.6115C129.777 24.5637 129.709 24.468 129.676 24.3196L127.565 16.6065C127.555 16.5778 127.55 16.5395 127.541 16.4964L124.637 5.93629C124.598 5.76882 124.617 5.62527 124.689 5.49608C124.762 5.36689 124.867 5.30469 124.997 5.30469H127.526C127.695 5.30469 127.825 5.3334 127.93 5.38603C128.031 5.44345 128.103 5.54393 128.137 5.68747C128.507 6.99374 129.099 9.14213 129.916 12.1279C130.671 14.8935 131.258 17.061 131.681 18.6257L131.787 19.0132C131.868 19.2764 131.936 19.42 131.989 19.4487C132.041 19.42 132.109 19.2764 132.19 19.0132L132.296 18.6257C132.719 17.061 133.306 14.8983 134.061 12.1279C134.874 9.14213 135.47 6.99374 135.84 5.68747C135.878 5.53914 135.946 5.43866 136.047 5.38603C136.148 5.32861 136.282 5.30469 136.451 5.30469H138.98C139.11 5.30469 139.211 5.37168 139.283 5.49608C139.355 5.62527 139.374 5.7736 139.34 5.93629L136.436 16.4964C136.436 16.5395 136.427 16.5778 136.417 16.6065L134.306 24.3196C134.268 24.468 134.205 24.5637 134.109 24.6115C134.018 24.6594 133.883 24.6785 133.7 24.6785H130.286Z" fill="#2C2B29"/>
                <path d="M97.2296 24.6182C97.0805 24.6182 96.9699 24.5704 96.8978 24.4795C96.8257 24.3886 96.7872 24.3407 96.7872 24.3407C96.066 23.2163 94.8831 21.3933 93.2483 18.8669C91.6086 16.3453 90.3729 14.417 89.5411 13.0916C89.4305 12.9624 89.3535 12.9002 89.3199 12.9002C89.2862 12.9002 89.2622 12.9385 89.2526 13.0102C89.243 13.082 89.2382 13.1394 89.2382 13.1777L89.2959 24.1206C89.2959 24.2498 89.2478 24.3647 89.1564 24.4651C89.0651 24.5656 88.9448 24.6182 88.7958 24.6182H86.1031C85.9541 24.6182 85.8291 24.5704 85.7281 24.4795C85.6271 24.3886 85.5742 24.269 85.5742 24.1206V5.88082C85.5742 5.73249 85.6271 5.60809 85.7281 5.50761C85.8291 5.40713 85.9541 5.35449 86.1031 5.35449H88.8246C88.9545 5.35449 89.0651 5.40713 89.1564 5.52196L95.8784 16.6611C96.0467 16.9721 96.1862 17.13 96.2968 17.13C96.3881 17.13 96.4362 16.9721 96.4362 16.6611L96.4073 5.88082C96.4073 5.73249 96.4602 5.60809 96.5612 5.50761C96.6622 5.40713 96.7776 5.35449 96.9074 5.35449H99.8501C99.9992 5.35449 100.124 5.40713 100.225 5.50761C100.326 5.60809 100.379 5.73249 100.379 5.88082V24.1254C100.379 24.2737 100.326 24.3934 100.225 24.4843C100.124 24.5752 99.9992 24.623 99.8501 24.623H97.2392L97.2296 24.6182Z" fill="#2C2B29"/>
                <path d="M50.8399 24.6791C50.7101 24.6791 50.5947 24.6264 50.4937 24.5259C50.3927 24.4255 50.3398 24.3106 50.3398 24.1814V11.4107C50.3398 11.2624 50.3927 11.1428 50.4937 11.0518C50.5947 10.9609 50.7101 10.9131 50.8399 10.9131H53.2008C53.3498 10.9131 53.4701 10.9609 53.5614 11.0518C53.6528 11.1428 53.7009 11.2624 53.7009 11.4107V13.4012C53.7009 13.7505 53.9413 13.9275 54.4221 13.9275H61.423C61.5528 13.9275 61.6634 13.9706 61.7548 14.0519C61.8461 14.1333 61.8942 14.2385 61.8942 14.3725V16.7506C61.8942 16.8798 61.8461 16.985 61.7548 17.0712C61.6634 17.1525 61.5528 17.1956 61.423 17.1956H54.3404C53.9124 17.1956 53.7009 17.387 53.7009 17.7745V20.789C53.7009 20.9182 53.7586 21.0378 53.8691 21.1479C53.9797 21.2579 54.0999 21.3153 54.2298 21.3153H63.7839C63.9329 21.3153 64.0531 21.3632 64.1445 21.4541C64.2359 21.545 64.2839 21.6646 64.2839 21.8129V24.191C64.2839 24.3202 64.2359 24.435 64.1445 24.5355C64.0531 24.636 63.9329 24.6886 63.7839 24.6886H50.8399V24.6791Z" fill="#2C2B29"/>
                <path d="M50.8399 8.72917C50.7101 8.72917 50.5947 8.68132 50.4937 8.57605C50.3927 8.47557 50.3398 8.35117 50.3398 8.20284V5.82477C50.3398 5.67644 50.3927 5.55682 50.4937 5.46591C50.5947 5.375 50.7101 5.32715 50.8399 5.32715H63.7262C63.8752 5.32715 64.0003 5.37978 64.1012 5.48026C64.2022 5.58074 64.2551 5.69558 64.2551 5.82477V8.20284C64.2551 8.33203 64.2022 8.45165 64.1012 8.5617C64.0003 8.67175 63.8752 8.72917 63.7262 8.72917H50.8399Z" fill="#2C2B29"/>
                <path d="M78.6728 24.6182C78.5237 24.6182 78.4131 24.5704 78.341 24.4795C78.2689 24.3886 78.2304 24.3407 78.2304 24.3407C77.5092 23.2163 76.3263 21.3933 74.6915 18.8669C73.0519 16.3453 71.8161 14.417 70.9843 13.0916C70.8737 12.9624 70.8016 12.9002 70.7631 12.9002C70.7246 12.9002 70.7054 12.9385 70.691 13.0102C70.6814 13.082 70.6766 13.1394 70.6766 13.1777L70.7294 24.1206C70.7294 24.2498 70.6814 24.3647 70.59 24.4651C70.4986 24.5656 70.3784 24.6182 70.2294 24.6182H67.5367C67.3877 24.6182 67.2626 24.5704 67.1617 24.4795C67.0607 24.3886 67.0078 24.269 67.0078 24.1206V5.88082C67.0078 5.73249 67.0607 5.60809 67.1617 5.50761C67.2626 5.40713 67.3877 5.35449 67.5367 5.35449H70.2582C70.3881 5.35449 70.4986 5.40713 70.59 5.52196L77.312 16.6611C77.4803 16.9721 77.615 17.13 77.7304 17.13C77.8217 17.13 77.8698 16.9721 77.8698 16.6611L77.8409 5.88082C77.8409 5.73249 77.8938 5.60809 77.9948 5.50761C78.0958 5.40713 78.2112 5.35449 78.341 5.35449H81.2837C81.4328 5.35449 81.5578 5.40713 81.6587 5.50761C81.7597 5.60809 81.8126 5.73249 81.8126 5.88082V24.1254C81.8126 24.2737 81.7597 24.3934 81.6587 24.4843C81.5578 24.5752 81.4328 24.623 81.2837 24.623H78.6728V24.6182Z" fill="#2C2B29"/>
                <path d="M113.312 21.4954C114.226 21.481 115.11 21.2801 115.966 20.8973C116.37 20.7154 116.745 20.5001 117.096 20.2513V20.2465C117.495 19.9451 117.861 19.591 118.188 19.1843C118.702 18.5766 119.092 17.9067 119.351 17.1699C119.611 16.4378 119.736 15.6914 119.736 14.9306C119.736 13.8444 119.496 12.8348 119.019 11.9018C118.995 11.8491 118.971 11.8013 118.952 11.7487C118.568 11.074 118.067 10.4855 117.442 9.98783C116.832 9.47586 116.154 9.08829 115.418 8.82991C114.73 8.59066 114.024 8.46147 113.312 8.44712C112.596 8.46147 111.894 8.59066 111.206 8.82991C110.47 9.08829 109.797 9.47107 109.182 9.98783C108.557 10.4855 108.052 11.074 107.672 11.7487C107.653 11.8013 107.633 11.8491 107.605 11.9018C107.129 12.8348 106.888 13.8444 106.888 14.9306C106.888 15.6914 107.018 16.4378 107.273 17.1699C107.532 17.902 107.917 18.5718 108.436 19.1843C108.763 19.591 109.124 19.9403 109.528 20.2465V20.2513C109.879 20.5001 110.254 20.7202 110.658 20.8973C111.509 21.2801 112.394 21.481 113.312 21.4954ZM113.312 4.76758C114.476 4.78193 115.61 4.97811 116.711 5.36568C117.851 5.76761 118.89 6.35614 119.822 7.13607C121.029 8.06912 121.953 9.23662 122.592 10.6338C123.232 12.031 123.554 13.4951 123.554 15.0167C123.554 16.2177 123.347 17.3756 122.938 18.5001C122.525 19.6245 121.929 20.6245 121.145 21.5002C121.01 21.6581 120.866 21.816 120.722 21.9643C119.847 22.9643 118.784 23.749 117.543 24.3136C116.192 24.9261 114.779 25.2467 113.312 25.2706C111.845 25.2467 110.432 24.9309 109.081 24.3136C107.84 23.749 106.778 22.9691 105.902 21.9643C105.758 21.816 105.619 21.6581 105.479 21.5002C104.696 20.6245 104.099 19.6245 103.686 18.5001C103.272 17.3756 103.07 16.2177 103.07 15.0167C103.07 13.4951 103.392 12.031 104.032 10.6338C104.671 9.23662 105.595 8.06912 106.802 7.13607C107.739 6.35614 108.778 5.76761 109.913 5.36568C111.014 4.97811 112.148 4.77715 113.312 4.76758Z" fill="#2C2B29"/>
                <path d="M33.7227 24.6774C33.5929 24.6774 33.4775 24.6248 33.3765 24.5243C33.2756 24.4238 33.2227 24.309 33.2227 24.1798V5.82516C33.2227 5.67683 33.2756 5.55242 33.3765 5.45194C33.4775 5.35146 33.5929 5.29883 33.7227 5.29883H36.7231C36.8529 5.29883 36.9683 5.35146 37.0693 5.45194C37.1703 5.55242 37.2232 5.67683 37.2232 5.82516V12.1842L42.8633 5.60506C43.0316 5.40409 43.2336 5.29883 43.474 5.29883H47.4456C47.6476 5.29883 47.7678 5.33711 47.8063 5.40888C47.8447 5.48065 47.8351 5.55721 47.7774 5.62898L37.6655 17.4045C37.3674 17.7538 37.2232 18.1987 37.2232 18.7299V24.175C37.2232 24.3042 37.1751 24.419 37.0837 24.5195C36.9924 24.62 36.8722 24.6726 36.7231 24.6726H33.7227V24.6774ZM44.3876 24.6774C43.9981 24.6583 43.7144 24.6104 43.5413 24.5243C43.3634 24.443 43.2239 24.3186 43.1085 24.1511L40.1659 19.9787C40.036 19.7777 39.9687 19.6103 39.9687 19.4811C39.9687 19.3136 40.0457 19.1414 40.1899 18.9548C40.339 18.7873 40.5073 18.5911 40.7044 18.3614C40.9015 18.1318 41.0891 17.9164 41.2718 17.7107L41.8536 17.0217C41.9642 16.8734 42.094 16.8016 42.2431 16.8016C42.4113 16.8016 42.546 16.8829 42.6614 17.0504L47.662 24.0985C47.7005 24.1702 47.7197 24.2372 47.7197 24.2946C47.7197 24.5339 47.5514 24.6631 47.2197 24.6822H44.3876V24.6774Z" fill="#2C2B29"/>
                <path fill-rule="evenodd" clip-rule="evenodd" d="M0 17.3311V29.3219L10.3283 29.2931V24.6327L4.6833 24.6614V17.3311H0Z" fill="#2C2B29"/>
                <path fill-rule="evenodd" clip-rule="evenodd" d="M0 0.676758V12.6723H4.6833V5.33719H10.2802V0.676758H0Z" fill="#2C2B29"/>
                <path fill-rule="evenodd" clip-rule="evenodd" d="M14.0799 0.676758V5.33719H18.1382L11.7383 11.7058L10.767 12.6723H4.67969V17.3328H10.767L11.7383 18.2993L18.1382 24.6679H14.0799V29.3284H26.1344V17.3376H21.4511V21.376L15.0512 15.0073L21.4511 8.63873V12.6771H26.1344V0.676758H14.0799Z" fill="#2C2B29"/>
                </svg>