<svg width="22" height="21" viewBox="0 0 22 21" fill="none" xmlns="http://www.w3.org/2000/svg">
<path d="M7.51763 14.4837C6.5569 13.5795 5.96403 12.3319 5.96403 10.9498C5.96403 9.57059 6.55994 8.32012 7.51763 7.4159C8.47837 6.51167 9.80395 5.95369 11.2724 5.95369C12.7379 5.95369 14.0665 6.51453 15.0272 7.4159C15.988 8.32012 16.5808 9.56773 16.5808 10.9498C16.5808 12.329 15.988 13.5795 15.0272 14.4837C14.0665 15.388 12.7379 15.9459 11.2724 15.9459C9.80699 15.9459 8.47837 15.388 7.51763 14.4837ZM0.591797 10.9498C0.591797 13.7254 1.78664 16.2378 3.72028 18.0577C5.65392 19.8776 8.32332 21.0022 11.2724 21.0022C14.2215 21.0022 16.8909 19.8776 18.8246 18.0577C20.7582 16.2378 21.9531 13.7254 21.9531 10.9498C21.9531 8.17419 20.7582 5.66182 18.8246 3.84192C16.8909 2.02202 14.2215 0.897461 11.2724 0.897461C8.32332 0.897461 5.65392 2.02202 3.72028 3.84192C1.78664 5.66182 0.591797 8.17419 0.591797 10.9498Z" fill="#863C8B"/>
</svg>
