<svg width="513" height="232" viewBox="0 0 513 232" fill="none" xmlns="http://www.w3.org/2000/svg">
<g filter="url(#filter0_b_1902_2270)">
<rect x="185" width="327.8" height="231.667" rx="13.7106" fill="white" fill-opacity="0.07"/>
<rect x="185.394" y="0.393991" width="327.012" height="230.879" rx="13.3166" stroke="#863C8B" stroke-opacity="0.16" stroke-width="0.787981"/>
</g>
<path d="M210.987 34.6079H205.578V19.5742H210.843C215.285 19.5742 218.349 22.6386 218.349 27.1219C218.349 31.5436 215.347 34.6079 210.987 34.6079ZM210.596 22.001H208.21V32.1811H210.74C213.743 32.1811 215.573 30.2479 215.573 27.1219C215.573 23.9342 213.701 22.001 210.596 22.001ZM227.321 24.4484H229.83V34.6079H227.506L227.321 33.2506C226.704 34.2172 225.388 34.8753 224.03 34.8753C221.686 34.8753 220.308 33.2917 220.308 30.8032V24.4484H222.817V29.9189C222.817 31.8521 223.578 32.6336 224.976 32.6336C226.56 32.6336 227.321 31.7081 227.321 29.7749V24.4484ZM234.745 34.6079H232.421V19.3069H234.93V25.9291C235.589 24.798 236.946 24.1193 238.488 24.1193C241.388 24.1193 243.157 26.3816 243.157 29.5898C243.157 32.7158 241.244 34.8753 238.324 34.8753C236.802 34.8753 235.506 34.1966 234.91 33.0243L234.745 34.6079ZM234.951 29.487C234.951 31.3174 236.082 32.5719 237.81 32.5719C239.578 32.5719 240.627 31.2968 240.627 29.487C240.627 27.6772 239.578 26.3816 237.81 26.3816C236.082 26.3816 234.951 27.6566 234.951 29.487ZM248.178 34.8753C246.018 34.8753 244.702 33.6207 244.702 31.7081C244.702 29.8366 246.06 28.6644 248.466 28.4793L251.509 28.253V28.0268C251.509 26.6489 250.687 26.0936 249.412 26.0936C247.931 26.0936 247.108 26.7106 247.108 27.78H244.97C244.97 25.5795 246.779 24.1399 249.535 24.1399C252.27 24.1399 253.957 25.6206 253.957 28.4381V34.6079H251.756L251.571 33.1066C251.139 34.1555 249.761 34.8753 248.178 34.8753ZM249 32.9832C250.543 32.9832 251.53 32.0577 251.53 30.4947V29.96L249.412 30.1245C247.849 30.2685 247.252 30.7827 247.252 31.6053C247.252 32.5308 247.869 32.9832 249 32.9832ZM257.676 22.4123C256.812 22.4123 256.134 21.7337 256.134 20.8905C256.134 20.0473 256.812 19.3891 257.676 19.3891C258.499 19.3891 259.177 20.0473 259.177 20.8905C259.177 21.7337 258.499 22.4123 257.676 22.4123ZM256.422 34.6079V24.4484H258.931V34.6079H256.422ZM270.069 19.5742V34.6079H267.436V19.5742H270.069ZM272.25 31.523H274.635C274.656 32.4074 275.314 32.9626 276.466 32.9626C277.638 32.9626 278.275 32.4896 278.275 31.7493C278.275 31.2351 278.008 30.8649 277.103 30.6593L275.273 30.2274C273.442 29.8161 272.558 28.9523 272.558 27.3276C272.558 25.3327 274.244 24.1399 276.589 24.1399C278.872 24.1399 280.414 25.4561 280.435 27.4304H278.049C278.029 26.5666 277.453 26.0114 276.486 26.0114C275.499 26.0114 274.923 26.4638 274.923 27.2248C274.923 27.8006 275.376 28.1708 276.239 28.3764L278.07 28.8083C279.777 29.1991 280.64 29.9806 280.64 31.5436C280.64 33.6002 278.892 34.8753 276.383 34.8753C273.854 34.8753 272.25 33.5179 272.25 31.523ZM285.08 34.6079H282.592V19.3069H285.08V34.6079ZM290.736 34.8753C288.576 34.8753 287.26 33.6207 287.26 31.7081C287.26 29.8366 288.617 28.6644 291.023 28.4793L294.067 28.253V28.0268C294.067 26.6489 293.245 26.0936 291.969 26.0936C290.489 26.0936 289.666 26.7106 289.666 27.78H287.527C287.527 25.5795 289.337 24.1399 292.093 24.1399C294.828 24.1399 296.515 25.6206 296.515 28.4381V34.6079H294.314L294.129 33.1066C293.697 34.1555 292.319 34.8753 290.736 34.8753ZM291.558 32.9832C293.101 32.9832 294.088 32.0577 294.088 30.4947V29.96L291.969 30.1245C290.406 30.2685 289.81 30.7827 289.81 31.6053C289.81 32.5308 290.427 32.9832 291.558 32.9832ZM301.488 34.6079H298.979V24.4484H301.283L301.488 25.6412C302.003 24.798 303.031 24.1399 304.491 24.1399C306.034 24.1399 307.103 24.9008 307.638 26.0731C308.152 24.9008 309.345 24.1399 310.887 24.1399C313.355 24.1399 314.712 25.6206 314.712 27.9651V34.6079H312.224V28.6232C312.224 27.1631 311.442 26.4021 310.25 26.4021C309.036 26.4021 308.111 27.1836 308.111 28.8495V34.6079H305.602V28.6027C305.602 27.1836 304.841 26.4227 303.648 26.4227C302.455 26.4227 301.488 27.2042 301.488 28.8495V34.6079ZM318.43 22.4123C317.566 22.4123 316.887 21.7337 316.887 20.8905C316.887 20.0473 317.566 19.3891 318.43 19.3891C319.253 19.3891 319.931 20.0473 319.931 20.8905C319.931 21.7337 319.253 22.4123 318.43 22.4123ZM317.175 34.6079V24.4484H319.684V34.6079H317.175ZM321.68 29.5076C321.68 26.361 323.757 24.1399 326.76 24.1399C329.536 24.1399 331.429 25.6823 331.696 28.1297H329.187C328.899 26.978 328.056 26.3816 326.863 26.3816C325.259 26.3816 324.189 27.5949 324.189 29.5076C324.189 31.4202 325.177 32.613 326.781 32.613C328.035 32.613 328.92 31.996 329.187 30.8855H331.716C331.408 33.2506 329.434 34.8753 326.781 34.8753C323.696 34.8753 321.68 32.7364 321.68 29.5076ZM348.834 34.6079H339.497V19.5742H348.834V22.001H342.13V25.8674H348.135V28.1914H342.13V32.1811H348.834V34.6079ZM350.722 29.5076C350.722 26.361 352.799 24.1399 355.801 24.1399C358.578 24.1399 360.47 25.6823 360.737 28.1297H358.228C357.94 26.978 357.097 26.3816 355.904 26.3816C354.3 26.3816 353.231 27.5949 353.231 29.5076C353.231 31.4202 354.218 32.613 355.822 32.613C357.076 32.613 357.961 31.996 358.228 30.8855H360.758C360.449 33.2506 358.475 34.8753 355.822 34.8753C352.737 34.8753 350.722 32.7364 350.722 29.5076ZM362.029 29.5076C362.029 26.3404 364.312 24.1604 367.458 24.1604C370.605 24.1604 372.888 26.3404 372.888 29.5076C372.888 32.6747 370.605 34.8547 367.458 34.8547C364.312 34.8547 362.029 32.6747 362.029 29.5076ZM364.538 29.5076C364.538 31.3585 365.731 32.613 367.458 32.613C369.186 32.613 370.379 31.3585 370.379 29.5076C370.379 27.6566 369.186 26.4021 367.458 26.4021C365.731 26.4021 364.538 27.6566 364.538 29.5076ZM377.385 34.6079H374.876V24.4484H377.2L377.406 25.7646C378.044 24.7363 379.278 24.1399 380.655 24.1399C383.206 24.1399 384.522 25.7234 384.522 28.3559V34.6079H382.013V28.9523C382.013 27.2453 381.17 26.4227 379.874 26.4227C378.331 26.4227 377.385 27.4921 377.385 29.1374V34.6079ZM386.391 29.5076C386.391 26.3404 388.673 24.1604 391.82 24.1604C394.967 24.1604 397.249 26.3404 397.249 29.5076C397.249 32.6747 394.967 34.8547 391.82 34.8547C388.673 34.8547 386.391 32.6747 386.391 29.5076ZM388.9 29.5076C388.9 31.3585 390.092 32.613 391.82 32.613C393.548 32.613 394.74 31.3585 394.74 29.5076C394.74 27.6566 393.548 26.4021 391.82 26.4021C390.092 26.4021 388.9 27.6566 388.9 29.5076ZM401.747 34.6079H399.238V24.4484H401.542L401.747 25.6412C402.261 24.798 403.29 24.1399 404.75 24.1399C406.292 24.1399 407.362 24.9008 407.896 26.0731C408.411 24.9008 409.603 24.1399 411.146 24.1399C413.614 24.1399 414.971 25.6206 414.971 27.9651V34.6079H412.483V28.6232C412.483 27.1631 411.701 26.4021 410.508 26.4021C409.295 26.4021 408.369 27.1836 408.369 28.8495V34.6079H405.86V28.6027C405.86 27.1836 405.099 26.4227 403.907 26.4227C402.714 26.4227 401.747 27.2042 401.747 28.8495V34.6079ZM416.349 39.3175V37.2198H417.85C418.837 37.2198 419.454 36.9936 419.886 35.8007L420.174 35.0398L416.082 24.4484H418.735L421.346 31.8521L424.102 24.4484H426.694L421.717 36.8702C420.956 38.7622 419.886 39.5437 418.22 39.5437C417.521 39.5437 416.904 39.4615 416.349 39.3175ZM210.987 63.6079H205.578V48.5742H210.843C215.285 48.5742 218.349 51.6386 218.349 56.1219C218.349 60.5436 215.347 63.6079 210.987 63.6079ZM210.596 51.001H208.21V61.1811H210.74C213.743 61.1811 215.573 59.2479 215.573 56.1219C215.573 52.9342 213.701 51.001 210.596 51.001ZM224.976 63.8753C221.953 63.8753 219.835 61.6747 219.835 58.5281C219.835 55.3404 221.912 53.1399 224.894 53.1399C227.938 53.1399 229.871 55.1759 229.871 58.343V59.104L222.221 59.1245C222.406 60.9138 223.352 61.8187 225.018 61.8187C226.395 61.8187 227.3 61.284 227.588 60.3174H229.912C229.48 62.5385 227.629 63.8753 224.976 63.8753ZM224.915 55.1965C223.434 55.1965 222.529 55.9985 222.282 57.5204H227.383C227.383 56.1219 226.416 55.1965 224.915 55.1965ZM234.317 63.6079L230.286 53.4484H232.959L234.728 58.1168C235.16 59.3302 235.509 60.3791 235.633 60.9343C235.777 60.2968 236.147 59.2274 236.579 58.1168L238.43 53.4484H241.021L236.784 63.6079H234.317ZM246.506 63.8753C243.483 63.8753 241.365 61.6747 241.365 58.5281C241.365 55.3404 243.442 53.1399 246.424 53.1399C249.468 53.1399 251.401 55.1759 251.401 58.343V59.104L243.751 59.1245C243.936 60.9138 244.882 61.8187 246.547 61.8187C247.925 61.8187 248.83 61.284 249.118 60.3174H251.442C251.01 62.5385 249.159 63.8753 246.506 63.8753ZM246.445 55.1965C244.964 55.1965 244.059 55.9985 243.812 57.5204H248.913C248.913 56.1219 247.946 55.1965 246.445 55.1965ZM255.939 63.6079H253.45V48.3069H255.939V63.6079ZM257.974 58.5076C257.974 55.3404 260.257 53.1604 263.404 53.1604C266.55 53.1604 268.833 55.3404 268.833 58.5076C268.833 61.6747 266.55 63.8547 263.404 63.8547C260.257 63.8547 257.974 61.6747 257.974 58.5076ZM260.483 58.5076C260.483 60.3585 261.676 61.613 263.404 61.613C265.131 61.613 266.324 60.3585 266.324 58.5076C266.324 56.6566 265.131 55.4021 263.404 55.4021C261.676 55.4021 260.483 56.6566 260.483 58.5076ZM270.822 68.3175V53.4484H273.146L273.31 54.9908C273.927 53.8185 275.264 53.1399 276.806 53.1399C279.665 53.1399 281.557 55.217 281.557 58.4047C281.557 61.5719 279.83 63.8753 276.806 63.8753C275.285 63.8753 273.968 63.2789 273.331 62.2506V68.3175H270.822ZM273.351 58.5281C273.351 60.3585 274.483 61.613 276.21 61.613C277.979 61.613 279.028 60.3379 279.028 58.5281C279.028 56.7183 277.979 55.4227 276.21 55.4227C274.483 55.4227 273.351 56.6978 273.351 58.5281ZM286.064 63.6079H283.555V53.4484H285.858L286.064 54.6412C286.578 53.798 287.606 53.1399 289.067 53.1399C290.609 53.1399 291.679 53.9008 292.213 55.0731C292.727 53.9008 293.92 53.1399 295.463 53.1399C297.931 53.1399 299.288 54.6206 299.288 56.9651V63.6079H296.799V57.6232C296.799 56.1631 296.018 55.4021 294.825 55.4021C293.612 55.4021 292.686 56.1836 292.686 57.8495V63.6079H290.177V57.6027C290.177 56.1836 289.416 55.4227 288.223 55.4227C287.031 55.4227 286.064 56.2042 286.064 57.8495V63.6079ZM306.296 63.8753C303.273 63.8753 301.155 61.6747 301.155 58.5281C301.155 55.3404 303.232 53.1399 306.214 53.1399C309.258 53.1399 311.191 55.1759 311.191 58.343V59.104L303.54 59.1245C303.725 60.9138 304.671 61.8187 306.337 61.8187C307.715 61.8187 308.62 61.284 308.908 60.3174H311.232C310.8 62.5385 308.949 63.8753 306.296 63.8753ZM306.234 55.1965C304.754 55.1965 303.849 55.9985 303.602 57.5204H308.702C308.702 56.1219 307.736 55.1965 306.234 55.1965ZM315.708 63.6079H313.199V53.4484H315.523L315.728 54.7646C316.366 53.7363 317.6 53.1399 318.978 53.1399C321.528 53.1399 322.844 54.7234 322.844 57.3559V63.6079H320.335V57.9523C320.335 56.2453 319.492 55.4227 318.196 55.4227C316.654 55.4227 315.708 56.4921 315.708 58.1374V63.6079ZM328.764 63.6079H326.255V55.5461H324.302V53.4484H326.255V50.2812H328.764V53.4484H330.739V55.5461H328.764V63.6079ZM344.567 63.8547C340.186 63.8547 337.348 60.8109 337.348 56.1014C337.348 51.4329 340.289 48.3274 344.69 48.3274C348.248 48.3274 350.901 50.4046 351.415 53.6334H348.639C348.125 51.8853 346.623 50.8571 344.628 50.8571C341.852 50.8571 340.104 52.8725 340.104 56.0808C340.104 59.2685 341.873 61.3251 344.628 61.3251C346.665 61.3251 348.228 60.2557 348.721 58.5898H351.456C350.881 61.757 348.125 63.8547 344.567 63.8547ZM357.992 63.8753C354.969 63.8753 352.851 61.6747 352.851 58.5281C352.851 55.3404 354.928 53.1399 357.91 53.1399C360.953 53.1399 362.887 55.1759 362.887 58.343V59.104L355.236 59.1245C355.421 60.9138 356.367 61.8187 358.033 61.8187C359.411 61.8187 360.316 61.284 360.604 60.3174H362.928C362.496 62.5385 360.645 63.8753 357.992 63.8753ZM357.93 55.1965C356.45 55.1965 355.545 55.9985 355.298 57.5204H360.398C360.398 56.1219 359.432 55.1965 357.93 55.1965ZM367.404 63.6079H364.895V53.4484H367.219L367.424 54.7646C368.062 53.7363 369.296 53.1399 370.674 53.1399C373.224 53.1399 374.54 54.7234 374.54 57.3559V63.6079H372.031V57.9523C372.031 56.2453 371.188 55.4227 369.892 55.4227C368.35 55.4227 367.404 56.4921 367.404 58.1374V63.6079ZM380.46 63.6079H377.951V55.5461H375.998V53.4484H377.951V50.2812H380.46V53.4484H382.435V55.5461H380.46V63.6079ZM390.37 53.4072V55.7312H389.444C387.635 55.7312 386.504 56.6978 386.504 58.6721V63.6079H383.995V53.4689H386.36L386.504 54.9497C386.935 53.9419 387.902 53.2633 389.259 53.2633C389.609 53.2633 389.959 53.3044 390.37 53.4072ZM396.272 63.8753C393.249 63.8753 391.13 61.6747 391.13 58.5281C391.13 55.3404 393.208 53.1399 396.19 53.1399C399.233 53.1399 401.167 55.1759 401.167 58.343V59.104L393.516 59.1245C393.701 60.9138 394.647 61.8187 396.313 61.8187C397.691 61.8187 398.596 61.284 398.884 60.3174H401.208C400.776 62.5385 398.925 63.8753 396.272 63.8753ZM396.21 55.1965C394.729 55.1965 393.825 55.9985 393.578 57.5204H398.678C398.678 56.1219 397.711 55.1965 396.21 55.1965ZM413.756 67.536H411.762C409.705 65.1915 408.348 61.5102 408.348 57.5615C408.348 53.9625 409.499 50.1784 411.762 47.6076H413.756C412.049 49.9316 410.877 53.5718 410.877 57.5615C410.877 61.2017 411.885 64.9858 413.756 67.536ZM420.823 63.6079H415.414V48.5742H420.679C425.121 48.5742 428.186 51.6386 428.186 56.1219C428.186 60.5436 425.183 63.6079 420.823 63.6079ZM420.432 51.001H418.047V61.1811H420.576C423.579 61.1811 425.409 59.2479 425.409 56.1219C425.409 52.9342 423.538 51.001 420.432 51.001ZM433.27 48.5742V63.6079H430.638V48.5742H433.27ZM445.94 63.6079H436.603V48.5742H445.94V51.001H439.235V54.8674H445.241V57.1914H439.235V61.1811H445.94V63.6079ZM454.203 63.6079H448.794V48.5742H454.059C458.501 48.5742 461.565 51.6386 461.565 56.1219C461.565 60.5436 458.563 63.6079 454.203 63.6079ZM453.812 51.001H451.426V61.1811H453.956C456.958 61.1811 458.789 59.2479 458.789 56.1219C458.789 52.9342 456.917 51.001 453.812 51.001ZM470.372 63.8547C465.992 63.8547 463.154 60.8109 463.154 56.1014C463.154 51.4329 466.095 48.3274 470.496 48.3274C474.054 48.3274 476.707 50.4046 477.221 53.6334H474.444C473.93 51.8853 472.429 50.8571 470.434 50.8571C467.658 50.8571 465.909 52.8725 465.909 56.0808C465.909 59.2685 467.678 61.3251 470.434 61.3251C472.47 61.3251 474.033 60.2557 474.527 58.5898H477.262C476.686 61.757 473.93 63.8547 470.372 63.8547ZM479.952 67.536H477.957C479.849 64.9858 480.836 61.2017 480.836 57.5615C480.836 53.5718 479.664 49.9316 477.957 47.6076H479.952C482.214 50.1784 483.386 53.9625 483.386 57.5615C483.386 61.5102 482.008 65.1915 479.952 67.536Z" fill="#863C8B"/>
<path opacity="0.7" d="M209.334 86.9277H206.615V90.7598H205.16V80.0209H209.334C211.443 80.0209 212.794 81.4023 212.794 83.4669C212.794 85.472 211.428 86.9277 209.334 86.9277ZM209.081 81.328H206.615V85.6206H209.022C210.462 85.6206 211.264 84.7739 211.264 83.452C211.264 82.1004 210.447 81.328 209.081 81.328ZM218.364 83.4372V84.7145H217.74C216.418 84.7145 215.602 85.5166 215.602 86.9128V90.7598H214.205V83.5114H215.512L215.602 84.6106C215.899 83.8531 216.626 83.348 217.622 83.348C217.874 83.348 218.082 83.3778 218.364 83.4372ZM218.937 87.1207C218.937 84.8779 220.541 83.3035 222.725 83.3035C224.893 83.3035 226.498 84.8779 226.498 87.1207C226.498 89.3636 224.893 90.938 222.725 90.938C220.541 90.938 218.937 89.3636 218.937 87.1207ZM220.348 87.1207C220.348 88.6358 221.314 89.6903 222.725 89.6903C224.121 89.6903 225.101 88.6358 225.101 87.1207C225.101 85.6057 224.121 84.5512 222.725 84.5512C221.314 84.5512 220.348 85.6057 220.348 87.1207ZM229.744 90.7598L226.818 83.4966H228.304L229.893 87.5515C230.145 88.2347 230.353 88.8437 230.472 89.2893C230.591 88.814 230.829 88.1902 231.081 87.5515L232.7 83.4966H234.156L231.126 90.7598H229.744ZM235.95 81.7736C235.445 81.7736 235.029 81.3577 235.029 80.8527C235.029 80.3329 235.445 79.9318 235.95 79.9318C236.455 79.9318 236.871 80.3329 236.871 80.8527C236.871 81.3577 236.455 81.7736 235.95 81.7736ZM235.267 90.7598V83.4966H236.663V90.7598H235.267ZM241.601 90.938C239.492 90.938 238.215 89.3636 238.215 87.1505C238.215 84.9225 239.507 83.2886 241.66 83.2886C242.774 83.2886 243.71 83.7788 244.2 84.67V79.8278H245.582V90.7598H244.334L244.215 89.4378C243.74 90.433 242.76 90.938 241.601 90.938ZM241.883 89.6755C243.309 89.6755 244.185 88.6209 244.185 87.1059C244.185 85.6206 243.309 84.5512 241.883 84.5512C240.457 84.5512 239.626 85.6206 239.626 87.1059C239.626 88.6061 240.457 89.6755 241.883 89.6755ZM250.73 90.938C248.591 90.938 247.121 89.3933 247.121 87.1356C247.121 84.8631 248.561 83.2886 250.671 83.2886C252.735 83.2886 254.087 84.7145 254.087 86.8682V87.3881L248.472 87.403C248.576 88.9328 249.378 89.7795 250.76 89.7795C251.844 89.7795 252.557 89.3339 252.795 88.5021H254.102C253.745 90.0617 252.527 90.938 250.73 90.938ZM250.671 84.462C249.453 84.462 248.68 85.1898 248.502 86.4672H252.691C252.691 85.2641 251.903 84.462 250.671 84.462ZM255.052 88.6506H256.389C256.389 89.3933 256.953 89.8389 257.874 89.8389C258.854 89.8389 259.419 89.4378 259.419 88.7694C259.419 88.2793 259.181 87.9822 258.424 87.7891L257.146 87.4921C255.854 87.1802 255.245 86.5415 255.245 85.472C255.245 84.1353 256.374 83.2886 257.978 83.2886C259.567 83.2886 260.607 84.1798 260.637 85.5612H259.3C259.27 84.8334 258.78 84.3729 257.934 84.3729C257.057 84.3729 256.567 84.7591 256.567 85.4275C256.567 85.9176 256.924 86.2444 257.637 86.4226L258.914 86.7346C260.147 87.0316 260.756 87.596 260.756 88.6803C260.756 90.0617 259.567 90.938 257.844 90.938C256.136 90.938 255.052 90.032 255.052 88.6506ZM265.593 83.4966H266.662V82.338C266.662 80.5557 267.643 79.8278 268.965 79.8278C269.232 79.8278 269.544 79.8427 269.826 79.8873V81.0904H269.202C268.296 81.0904 268.059 81.5508 268.059 82.338V83.4966H269.782V84.67H268.059V90.7598H266.662V84.67H265.593V83.4966ZM276.1 83.4966H277.481V90.7598H276.234L276.085 89.6606C275.669 90.4181 274.704 90.938 273.634 90.938C271.941 90.938 270.99 89.7943 270.99 88.0119V83.4966H272.387V87.5515C272.387 89.1111 273.055 89.7052 274.124 89.7052C275.402 89.7052 276.1 88.8883 276.1 87.3287V83.4966ZM280.903 90.7598H279.507V83.4966H280.769L280.918 84.6106C281.378 83.7788 282.299 83.2886 283.324 83.2886C285.24 83.2886 286.117 84.462 286.117 86.3187V90.7598H284.72V86.6306C284.72 85.1601 284.037 84.566 282.968 84.566C281.661 84.566 280.903 85.5018 280.903 86.9128V90.7598ZM290.962 90.938C288.852 90.938 287.575 89.3636 287.575 87.1505C287.575 84.9225 288.867 83.2886 291.021 83.2886C292.135 83.2886 293.071 83.7788 293.561 84.67V79.8278H294.942V90.7598H293.695L293.576 89.4378C293.1 90.433 292.12 90.938 290.962 90.938ZM291.244 89.6755C292.67 89.6755 293.546 88.6209 293.546 87.1059C293.546 85.6206 292.67 84.5512 291.244 84.5512C289.818 84.5512 288.986 85.6206 288.986 87.1059C288.986 88.6061 289.818 89.6755 291.244 89.6755ZM297.64 81.7736C297.135 81.7736 296.719 81.3577 296.719 80.8527C296.719 80.3329 297.135 79.9318 297.64 79.9318C298.145 79.9318 298.561 80.3329 298.561 80.8527C298.561 81.3577 298.145 81.7736 297.64 81.7736ZM296.957 90.7598V83.4966H298.353V90.7598H296.957ZM301.776 90.7598H300.38V83.4966H301.642L301.791 84.6106C302.251 83.7788 303.172 83.2886 304.197 83.2886C306.113 83.2886 306.989 84.462 306.989 86.3187V90.7598H305.593V86.6306C305.593 85.1601 304.91 84.566 303.84 84.566C302.533 84.566 301.776 85.5018 301.776 86.9128V90.7598ZM308.463 86.9425C308.463 84.8928 309.785 83.2886 311.894 83.2886C313.067 83.2886 313.973 83.8233 314.434 84.7294L314.538 83.4966H315.785V90.4627C315.785 92.7501 314.374 94.2057 312.146 94.2057C310.171 94.2057 308.819 93.0917 308.552 91.2499H309.948C310.126 92.3193 310.928 92.9432 312.146 92.9432C313.513 92.9432 314.404 92.052 314.404 90.6706V89.215C313.929 90.0617 312.978 90.5667 311.834 90.5667C309.77 90.5667 308.463 88.9774 308.463 86.9425ZM309.859 86.9128C309.859 88.2793 310.706 89.3487 312.072 89.3487C313.483 89.3487 314.345 88.3387 314.345 86.9128C314.345 85.5166 313.513 84.5066 312.087 84.5066C310.691 84.5066 309.859 85.576 309.859 86.9128ZM323.911 90.7598H322.515V84.67H321.089V83.4966H322.515V81.224H323.911V83.4966H325.337V84.67H323.911V90.7598ZM326.042 87.1207C326.042 84.8779 327.647 83.3035 329.83 83.3035C331.999 83.3035 333.603 84.8779 333.603 87.1207C333.603 89.3636 331.999 90.938 329.83 90.938C327.647 90.938 326.042 89.3636 326.042 87.1207ZM327.453 87.1207C327.453 88.6358 328.419 89.6903 329.83 89.6903C331.226 89.6903 332.207 88.6358 332.207 87.1207C332.207 85.6057 331.226 84.5512 329.83 84.5512C328.419 84.5512 327.453 85.6057 327.453 87.1207ZM338.616 88.6506H339.952C339.952 89.3933 340.517 89.8389 341.438 89.8389C342.418 89.8389 342.982 89.4378 342.982 88.7694C342.982 88.2793 342.745 87.9822 341.987 87.7891L340.71 87.4921C339.418 87.1802 338.809 86.5415 338.809 85.472C338.809 84.1353 339.937 83.2886 341.542 83.2886C343.131 83.2886 344.171 84.1798 344.2 85.5612H342.864C342.834 84.8334 342.344 84.3729 341.497 84.3729C340.621 84.3729 340.131 84.7591 340.131 85.4275C340.131 85.9176 340.487 86.2444 341.2 86.4226L342.477 86.7346C343.71 87.0316 344.319 87.596 344.319 88.6803C344.319 90.0617 343.131 90.938 341.408 90.938C339.7 90.938 338.616 90.032 338.616 88.6506ZM347.917 90.7598H346.521V84.67H345.095V83.4966H346.521V81.224H347.917V83.4966H349.343V84.67H347.917V90.7598ZM352.633 90.938C351.073 90.938 350.153 90.0617 350.153 88.7397C350.153 87.403 351.148 86.5712 352.856 86.4375L355.143 86.2593V86.0513C355.143 84.8334 354.415 84.4026 353.435 84.4026C352.262 84.4026 351.593 84.9225 351.593 85.7988H350.375C350.375 84.2838 351.623 83.2886 353.495 83.2886C355.292 83.2886 356.51 84.2392 356.51 86.1998V90.7598H355.321L355.173 89.5864C354.802 90.4181 353.806 90.938 352.633 90.938ZM353.034 89.8537C354.356 89.8537 355.158 88.9922 355.158 87.6258V87.2396L353.301 87.3881C352.069 87.5069 351.564 87.9822 351.564 88.6952C351.564 89.4675 352.128 89.8537 353.034 89.8537ZM362.602 83.4372V84.7145H361.978C360.656 84.7145 359.84 85.5166 359.84 86.9128V90.7598H358.443V83.5114H359.75L359.84 84.6106C360.137 83.8531 360.864 83.348 361.86 83.348C362.112 83.348 362.32 83.3778 362.602 83.4372ZM366.252 90.7598H364.855V84.67H363.429V83.4966H364.855V81.224H366.252V83.4966H367.677V84.67H366.252V90.7598ZM373.951 83.4966H375.332V90.7598H374.084L373.936 89.6606C373.52 90.4181 372.555 90.938 371.485 90.938C369.792 90.938 368.841 89.7943 368.841 88.0119V83.4966H370.238V87.5515C370.238 89.1111 370.906 89.7052 371.975 89.7052C373.253 89.7052 373.951 88.8883 373.951 87.3287V83.4966ZM377.358 94.0126V83.4966H378.62L378.724 84.8037C379.215 83.8085 380.195 83.2886 381.353 83.2886C383.433 83.2886 384.725 84.8482 384.725 87.0762C384.725 89.2893 383.507 90.9529 381.353 90.9529C380.195 90.9529 379.229 90.4627 378.754 89.5715V94.0126H377.358ZM378.769 87.1356C378.769 88.6209 379.63 89.6903 381.056 89.6903C382.482 89.6903 383.329 88.6209 383.329 87.1356C383.329 85.6354 382.482 84.566 381.056 84.566C379.63 84.566 378.769 85.6206 378.769 87.1356ZM385.67 88.6506H387.007C387.007 89.3933 387.571 89.8389 388.492 89.8389C389.472 89.8389 390.037 89.4378 390.037 88.7694C390.037 88.2793 389.799 87.9822 389.041 87.7891L387.764 87.4921C386.472 87.1802 385.863 86.5415 385.863 85.472C385.863 84.1353 386.992 83.2886 388.596 83.2886C390.185 83.2886 391.225 84.1798 391.255 85.5612H389.918C389.888 84.8334 389.398 84.3729 388.551 84.3729C387.675 84.3729 387.185 84.7591 387.185 85.4275C387.185 85.9176 387.541 86.2444 388.254 86.4226L389.532 86.7346C390.764 87.0316 391.373 87.596 391.373 88.6803C391.373 90.0617 390.185 90.938 388.462 90.938C386.754 90.938 385.67 90.032 385.67 88.6506ZM399.033 90.7598H397.637V84.67H396.211V83.4966H397.637V81.224H399.033V83.4966H400.459V84.67H399.033V90.7598ZM403.108 90.7449H401.712V79.8278H403.108V84.6106C403.568 83.8233 404.445 83.2886 405.574 83.2886C407.43 83.2886 408.321 84.462 408.321 86.3187V90.7598H406.925V86.6306C406.925 85.1601 406.227 84.566 405.187 84.566C403.836 84.566 403.108 85.5463 403.108 86.794V90.7449ZM414.414 83.4372V84.7145H413.79C412.468 84.7145 411.651 85.5166 411.651 86.9128V90.7598H410.255V83.5114H411.562L411.651 84.6106C411.949 83.8531 412.676 83.348 413.671 83.348C413.924 83.348 414.132 83.3778 414.414 83.4372ZM414.987 87.1207C414.987 84.8779 416.591 83.3035 418.775 83.3035C420.943 83.3035 422.548 84.8779 422.548 87.1207C422.548 89.3636 420.943 90.938 418.775 90.938C416.591 90.938 414.987 89.3636 414.987 87.1207ZM416.398 87.1207C416.398 88.6358 417.364 89.6903 418.775 89.6903C420.171 89.6903 421.151 88.6358 421.151 87.1207C421.151 85.6057 420.171 84.5512 418.775 84.5512C417.364 84.5512 416.398 85.6057 416.398 87.1207ZM428.939 83.4966H430.321V90.7598H429.073L428.925 89.6606C428.509 90.4181 427.543 90.938 426.474 90.938C424.78 90.938 423.83 89.7943 423.83 88.0119V83.4966H425.226V87.5515C425.226 89.1111 425.894 89.7052 426.964 89.7052C428.241 89.7052 428.939 88.8883 428.939 87.3287V83.4966ZM431.886 86.9425C431.886 84.8928 433.208 83.2886 435.317 83.2886C436.49 83.2886 437.396 83.8233 437.857 84.7294L437.961 83.4966H439.209V90.4627C439.209 92.7501 437.798 94.2057 435.57 94.2057C433.594 94.2057 432.242 93.0917 431.975 91.2499H433.371C433.55 92.3193 434.352 92.9432 435.57 92.9432C436.936 92.9432 437.827 92.052 437.827 90.6706V89.215C437.352 90.0617 436.401 90.5667 435.258 90.5667C433.193 90.5667 431.886 88.9774 431.886 86.9425ZM433.282 86.9128C433.282 88.2793 434.129 89.3487 435.495 89.3487C436.906 89.3487 437.768 88.3387 437.768 86.9128C437.768 85.5166 436.936 84.5066 435.51 84.5066C434.114 84.5066 433.282 85.576 433.282 86.9128ZM442.62 90.7449H441.223V79.8278H442.62V84.6106C443.08 83.8233 443.956 83.2886 445.085 83.2886C446.942 83.2886 447.833 84.462 447.833 86.3187V90.7598H446.437V86.6306C446.437 85.1601 445.739 84.566 444.699 84.566C443.347 84.566 442.62 85.5463 442.62 86.794V90.7449ZM206.957 112.76L204.031 105.497H205.516L207.106 109.551C207.358 110.235 207.566 110.844 207.685 111.289C207.804 110.814 208.041 110.19 208.294 109.551L209.913 105.497H211.368L208.338 112.76H206.957ZM214.27 112.938C212.71 112.938 211.789 112.062 211.789 110.74C211.789 109.403 212.784 108.571 214.492 108.437L216.78 108.259V108.051C216.78 106.833 216.052 106.403 215.072 106.403C213.898 106.403 213.23 106.922 213.23 107.799H212.012C212.012 106.284 213.26 105.289 215.131 105.289C216.928 105.289 218.146 106.239 218.146 108.2V112.76H216.958L216.81 111.586C216.438 112.418 215.443 112.938 214.27 112.938ZM214.671 111.854C215.993 111.854 216.795 110.992 216.795 109.626V109.24L214.938 109.388C213.705 109.507 213.2 109.982 213.2 110.695C213.2 111.468 213.765 111.854 214.671 111.854ZM224.239 105.437V106.715H223.615C222.293 106.715 221.476 107.517 221.476 108.913V112.76H220.08V105.511H221.387L221.476 106.611C221.773 105.853 222.501 105.348 223.496 105.348C223.749 105.348 223.957 105.378 224.239 105.437ZM226.232 103.774C225.727 103.774 225.311 103.358 225.311 102.853C225.311 102.333 225.727 101.932 226.232 101.932C226.737 101.932 227.152 102.333 227.152 102.853C227.152 103.358 226.737 103.774 226.232 103.774ZM225.548 112.76V105.497H226.944V112.76H225.548ZM228.496 109.121C228.496 106.878 230.1 105.303 232.284 105.303C234.452 105.303 236.056 106.878 236.056 109.121C236.056 111.364 234.452 112.938 232.284 112.938C230.1 112.938 228.496 111.364 228.496 109.121ZM229.907 109.121C229.907 110.636 230.873 111.69 232.284 111.69C233.68 111.69 234.66 110.636 234.66 109.121C234.66 107.606 233.68 106.551 232.284 106.551C230.873 106.551 229.907 107.606 229.907 109.121ZM242.448 105.497H243.83V112.76H242.582L242.433 111.661C242.018 112.418 241.052 112.938 239.983 112.938C238.289 112.938 237.339 111.794 237.339 110.012V105.497H238.735V109.551C238.735 111.111 239.403 111.705 240.473 111.705C241.75 111.705 242.448 110.888 242.448 109.329V105.497ZM245.116 110.651H246.453C246.453 111.393 247.017 111.839 247.938 111.839C248.919 111.839 249.483 111.438 249.483 110.769C249.483 110.279 249.245 109.982 248.488 109.789L247.21 109.492C245.918 109.18 245.309 108.541 245.309 107.472C245.309 106.135 246.438 105.289 248.042 105.289C249.631 105.289 250.671 106.18 250.701 107.561H249.364C249.334 106.833 248.844 106.373 247.998 106.373C247.121 106.373 246.631 106.759 246.631 107.427C246.631 107.918 246.988 108.244 247.701 108.423L248.978 108.735C250.211 109.032 250.82 109.596 250.82 110.68C250.82 112.062 249.631 112.938 247.909 112.938C246.2 112.938 245.116 112.032 245.116 110.651ZM256.429 116.013V105.497H257.692L257.796 106.804C258.286 105.808 259.266 105.289 260.425 105.289C262.504 105.289 263.797 106.848 263.797 109.076C263.797 111.289 262.579 112.953 260.425 112.953C259.266 112.953 258.301 112.463 257.826 111.572V116.013H256.429ZM257.841 109.136C257.841 110.621 258.702 111.69 260.128 111.69C261.554 111.69 262.4 110.621 262.4 109.136C262.4 107.635 261.554 106.566 260.128 106.566C258.702 106.566 257.841 107.621 257.841 109.136ZM269.494 105.437V106.715H268.871C267.549 106.715 266.732 107.517 266.732 108.913V112.76H265.336V105.511H266.643L266.732 106.611C267.029 105.853 267.757 105.348 268.752 105.348C269.004 105.348 269.212 105.378 269.494 105.437ZM270.068 109.121C270.068 106.878 271.672 105.303 273.855 105.303C276.024 105.303 277.628 106.878 277.628 109.121C277.628 111.364 276.024 112.938 273.855 112.938C271.672 112.938 270.068 111.364 270.068 109.121ZM271.479 109.121C271.479 110.636 272.444 111.69 273.855 111.69C275.251 111.69 276.232 110.636 276.232 109.121C276.232 107.606 275.251 106.551 273.855 106.551C272.444 106.551 271.479 107.606 271.479 109.121ZM278.713 108.943C278.713 106.893 280.035 105.289 282.144 105.289C283.317 105.289 284.223 105.823 284.684 106.729L284.788 105.497H286.036V112.463C286.036 114.75 284.624 116.206 282.396 116.206C280.421 116.206 279.069 115.092 278.802 113.25H280.198C280.376 114.319 281.179 114.943 282.396 114.943C283.763 114.943 284.654 114.052 284.654 112.671V111.215C284.179 112.062 283.228 112.567 282.085 112.567C280.02 112.567 278.713 110.977 278.713 108.943ZM280.109 108.913C280.109 110.279 280.956 111.349 282.322 111.349C283.733 111.349 284.595 110.339 284.595 108.913C284.595 107.517 283.763 106.507 282.337 106.507C280.941 106.507 280.109 107.576 280.109 108.913ZM292.209 105.437V106.715H291.585C290.264 106.715 289.447 107.517 289.447 108.913V112.76H288.05V105.511H289.358L289.447 106.611C289.744 105.853 290.471 105.348 291.467 105.348C291.719 105.348 291.927 105.378 292.209 105.437ZM295.353 112.938C293.793 112.938 292.872 112.062 292.872 110.74C292.872 109.403 293.867 108.571 295.576 108.437L297.863 108.259V108.051C297.863 106.833 297.135 106.403 296.155 106.403C294.981 106.403 294.313 106.922 294.313 107.799H293.095C293.095 106.284 294.343 105.289 296.214 105.289C298.011 105.289 299.229 106.239 299.229 108.2V112.76H298.041L297.893 111.586C297.521 112.418 296.526 112.938 295.353 112.938ZM295.754 111.854C297.076 111.854 297.878 110.992 297.878 109.626V109.24L296.021 109.388C294.788 109.507 294.283 109.982 294.283 110.695C294.283 111.468 294.848 111.854 295.754 111.854ZM302.559 112.76H301.163V105.497H302.411L302.544 106.447C302.916 105.764 303.688 105.289 304.713 105.289C305.842 105.289 306.644 105.853 307.015 106.759C307.357 105.853 308.233 105.289 309.362 105.289C311.025 105.289 312.035 106.328 312.035 108.007V112.76H310.669V108.348C310.669 107.205 310.03 106.551 309.05 106.551C307.995 106.551 307.297 107.294 307.297 108.452V112.76H305.916V108.334C305.916 107.19 305.292 106.566 304.312 106.566C303.257 106.566 302.559 107.294 302.559 108.452V112.76ZM313.29 110.651H314.627C314.627 111.393 315.191 111.839 316.112 111.839C317.092 111.839 317.657 111.438 317.657 110.769C317.657 110.279 317.419 109.982 316.661 109.789L315.384 109.492C314.092 109.18 313.483 108.541 313.483 107.472C313.483 106.135 314.612 105.289 316.216 105.289C317.805 105.289 318.845 106.18 318.875 107.561H317.538C317.508 106.833 317.018 106.373 316.171 106.373C315.295 106.373 314.805 106.759 314.805 107.427C314.805 107.918 315.161 108.244 315.874 108.423L317.152 108.735C318.384 109.032 318.993 109.596 318.993 110.68C318.993 112.062 317.805 112.938 316.082 112.938C314.374 112.938 313.29 112.032 313.29 110.651ZM324.009 110.651H325.346C325.346 111.393 325.91 111.839 326.831 111.839C327.811 111.839 328.376 111.438 328.376 110.769C328.376 110.279 328.138 109.982 327.381 109.789L326.103 109.492C324.811 109.18 324.202 108.541 324.202 107.472C324.202 106.135 325.331 105.289 326.935 105.289C328.524 105.289 329.564 106.18 329.594 107.561H328.257C328.227 106.833 327.737 106.373 326.89 106.373C326.014 106.373 325.524 106.759 325.524 107.427C325.524 107.918 325.88 108.244 326.593 108.423L327.871 108.735C329.104 109.032 329.713 109.596 329.713 110.68C329.713 112.062 328.524 112.938 326.801 112.938C325.093 112.938 324.009 112.032 324.009 110.651ZM336.281 105.497H337.663V112.76H336.415L336.266 111.661C335.851 112.418 334.885 112.938 333.816 112.938C332.122 112.938 331.172 111.794 331.172 110.012V105.497H332.568V109.551C332.568 111.111 333.236 111.705 334.306 111.705C335.583 111.705 336.281 110.888 336.281 109.329V105.497ZM339.068 109.136C339.068 106.863 340.509 105.289 342.633 105.289C344.46 105.289 345.737 106.328 345.99 107.947H344.593C344.356 107.026 343.613 106.536 342.677 106.536C341.355 106.536 340.449 107.546 340.449 109.121C340.449 110.68 341.296 111.69 342.618 111.69C343.613 111.69 344.356 111.17 344.608 110.309H346.004C345.722 111.883 344.371 112.938 342.618 112.938C340.479 112.938 339.068 111.423 339.068 109.136ZM348.874 112.745H347.478V101.828H348.874V106.611C349.334 105.823 350.21 105.289 351.339 105.289C353.196 105.289 354.087 106.462 354.087 108.319V112.76H352.691V108.631C352.691 107.16 351.993 106.566 350.953 106.566C349.602 106.566 348.874 107.546 348.874 108.794V112.745ZM362.206 112.938C360.647 112.938 359.726 112.062 359.726 110.74C359.726 109.403 360.721 108.571 362.429 108.437L364.717 108.259V108.051C364.717 106.833 363.989 106.403 363.008 106.403C361.835 106.403 361.167 106.922 361.167 107.799H359.949C359.949 106.284 361.196 105.289 363.068 105.289C364.865 105.289 366.083 106.239 366.083 108.2V112.76H364.895L364.746 111.586C364.375 112.418 363.38 112.938 362.206 112.938ZM362.607 111.854C363.929 111.854 364.731 110.992 364.731 109.626V109.24L362.875 109.388C361.642 109.507 361.137 109.982 361.137 110.695C361.137 111.468 361.701 111.854 362.607 111.854ZM367.423 110.651H368.759C368.759 111.393 369.324 111.839 370.245 111.839C371.225 111.839 371.789 111.438 371.789 110.769C371.789 110.279 371.552 109.982 370.794 109.789L369.517 109.492C368.225 109.18 367.616 108.541 367.616 107.472C367.616 106.135 368.744 105.289 370.349 105.289C371.938 105.289 372.978 106.18 373.007 107.561H371.671C371.641 106.833 371.151 106.373 370.304 106.373C369.428 106.373 368.938 106.759 368.938 107.427C368.938 107.918 369.294 108.244 370.007 108.423L371.284 108.735C372.517 109.032 373.126 109.596 373.126 110.68C373.126 112.062 371.938 112.938 370.215 112.938C368.507 112.938 367.423 112.032 367.423 110.651ZM380.786 112.76H379.389V106.67H377.963V105.497H379.389V103.224H380.786V105.497H382.211V106.67H380.786V112.76ZM384.861 112.745H383.464V101.828H384.861V106.611C385.321 105.823 386.197 105.289 387.326 105.289C389.183 105.289 390.074 106.462 390.074 108.319V112.76H388.678V108.631C388.678 107.16 387.98 106.566 386.94 106.566C385.588 106.566 384.861 107.546 384.861 108.794V112.745ZM395.142 112.938C393.003 112.938 391.533 111.393 391.533 109.136C391.533 106.863 392.973 105.289 395.083 105.289C397.147 105.289 398.499 106.715 398.499 108.868V109.388L392.884 109.403C392.988 110.933 393.79 111.779 395.172 111.779C396.256 111.779 396.969 111.334 397.207 110.502H398.514C398.157 112.062 396.939 112.938 395.142 112.938ZM395.083 106.462C393.865 106.462 393.092 107.19 392.914 108.467H397.103C397.103 107.264 396.315 106.462 395.083 106.462ZM405.813 102.021V112.76H404.357V102.021H405.813ZM407.485 110.651H408.822C408.822 111.393 409.387 111.839 410.307 111.839C411.288 111.839 411.852 111.438 411.852 110.769C411.852 110.279 411.615 109.982 410.857 109.789L409.58 109.492C408.287 109.18 407.678 108.541 407.678 107.472C407.678 106.135 408.807 105.289 410.411 105.289C412.001 105.289 413.04 106.18 413.07 107.561H411.733C411.704 106.833 411.214 106.373 410.367 106.373C409.491 106.373 409 106.759 409 107.427C409 107.918 409.357 108.244 410.07 108.423L411.347 108.735C412.58 109.032 413.189 109.596 413.189 110.68C413.189 112.062 412.001 112.938 410.278 112.938C408.57 112.938 407.485 112.032 407.485 110.651ZM416.163 112.76H414.767V101.828H416.163V112.76ZM420.343 112.938C418.783 112.938 417.862 112.062 417.862 110.74C417.862 109.403 418.857 108.571 420.565 108.437L422.853 108.259V108.051C422.853 106.833 422.125 106.403 421.145 106.403C419.971 106.403 419.303 106.922 419.303 107.799H418.085C418.085 106.284 419.333 105.289 421.204 105.289C423.001 105.289 424.219 106.239 424.219 108.2V112.76H423.031L422.882 111.586C422.511 112.418 421.516 112.938 420.343 112.938ZM420.744 111.854C422.065 111.854 422.868 110.992 422.868 109.626V109.24L421.011 109.388C419.778 109.507 419.273 109.982 419.273 110.695C419.273 111.468 419.838 111.854 420.744 111.854ZM427.549 112.76H426.153V105.497H427.4L427.534 106.447C427.905 105.764 428.678 105.289 429.703 105.289C430.832 105.289 431.634 105.853 432.005 106.759C432.347 105.853 433.223 105.289 434.352 105.289C436.015 105.289 437.025 106.328 437.025 108.007V112.76H435.659V108.348C435.659 107.205 435.02 106.551 434.04 106.551C432.985 106.551 432.287 107.294 432.287 108.452V112.76H430.906V108.334C430.906 107.19 430.282 106.566 429.302 106.566C428.247 106.566 427.549 107.294 427.549 108.452V112.76ZM439.644 103.774C439.139 103.774 438.723 103.358 438.723 102.853C438.723 102.333 439.139 101.932 439.644 101.932C440.149 101.932 440.565 102.333 440.565 102.853C440.565 103.358 440.149 103.774 439.644 103.774ZM438.961 112.76V105.497H440.357V112.76H438.961ZM441.909 109.136C441.909 106.863 443.349 105.289 445.473 105.289C447.3 105.289 448.578 106.328 448.83 107.947H447.434C447.196 107.026 446.454 106.536 445.518 106.536C444.196 106.536 443.29 107.546 443.29 109.121C443.29 110.68 444.137 111.69 445.459 111.69C446.454 111.69 447.196 111.17 447.449 110.309H448.845C448.563 111.883 447.211 112.938 445.459 112.938C443.32 112.938 441.909 111.423 441.909 109.136ZM211.71 134.76H205.16V124.021H211.71V125.358H206.615V128.715H211.205V130.007H206.615V133.408H211.71V134.76ZM213.106 131.136C213.106 128.863 214.547 127.289 216.671 127.289C218.498 127.289 219.775 128.328 220.028 129.947H218.632C218.394 129.026 217.651 128.536 216.716 128.536C215.394 128.536 214.488 129.546 214.488 131.121C214.488 132.68 215.334 133.69 216.656 133.69C217.651 133.69 218.394 133.17 218.647 132.309H220.043C219.761 133.883 218.409 134.938 216.656 134.938C214.517 134.938 213.106 133.423 213.106 131.136ZM221.041 131.121C221.041 128.878 222.645 127.303 224.828 127.303C226.997 127.303 228.601 128.878 228.601 131.121C228.601 133.364 226.997 134.938 224.828 134.938C222.645 134.938 221.041 133.364 221.041 131.121ZM222.452 131.121C222.452 132.636 223.417 133.69 224.828 133.69C226.224 133.69 227.205 132.636 227.205 131.121C227.205 129.606 226.224 128.551 224.828 128.551C223.417 128.551 222.452 129.606 222.452 131.121ZM231.543 134.76H230.146V127.497H231.409L231.557 128.611C232.018 127.779 232.939 127.289 233.964 127.289C235.88 127.289 236.756 128.462 236.756 130.319V134.76H235.36V130.631C235.36 129.16 234.677 128.566 233.607 128.566C232.3 128.566 231.543 129.502 231.543 130.913V134.76ZM238.215 131.121C238.215 128.878 239.819 127.303 242.002 127.303C244.171 127.303 245.775 128.878 245.775 131.121C245.775 133.364 244.171 134.938 242.002 134.938C239.819 134.938 238.215 133.364 238.215 131.121ZM239.626 131.121C239.626 132.636 240.591 133.69 242.002 133.69C243.398 133.69 244.379 132.636 244.379 131.121C244.379 129.606 243.398 128.551 242.002 128.551C240.591 128.551 239.626 129.606 239.626 131.121ZM248.717 134.76H247.32V127.497H248.568L248.702 128.447C249.073 127.764 249.845 127.289 250.87 127.289C251.999 127.289 252.801 127.853 253.172 128.759C253.514 127.853 254.39 127.289 255.519 127.289C257.183 127.289 258.193 128.328 258.193 130.007V134.76H256.826V130.348C256.826 129.205 256.188 128.551 255.207 128.551C254.153 128.551 253.455 129.294 253.455 130.452V134.76H252.073V130.334C252.073 129.19 251.449 128.566 250.469 128.566C249.415 128.566 248.717 129.294 248.717 130.452V134.76ZM259.285 138.013V136.869H260.221C260.889 136.869 261.424 136.765 261.766 135.844L262.018 135.146L259.092 127.497H260.562L262.672 133.349L264.825 127.497H266.266L262.835 136.394C262.345 137.641 261.617 138.161 260.503 138.161C260.043 138.161 259.656 138.102 259.285 138.013ZM272.125 134.76H270.61L274.532 124.021H276.151L280.087 134.76H278.557L277.591 132.086H273.076L272.125 134.76ZM275.155 126.338L273.522 130.824H277.161L275.512 126.338C275.438 126.13 275.363 125.878 275.334 125.714C275.304 125.863 275.23 126.115 275.155 126.338ZM282.474 134.76L280.097 127.497H281.538L282.741 131.269C282.904 131.804 283.053 132.354 283.186 132.992C283.305 132.354 283.498 131.745 283.662 131.269L284.88 127.497H286.306L287.509 131.269C287.628 131.626 287.865 132.472 287.984 132.992C288.103 132.413 288.237 131.908 288.444 131.269L289.662 127.497H291.118L288.638 134.76H287.316L286.053 130.868C285.815 130.14 285.667 129.576 285.593 129.175C285.518 129.531 285.385 130.007 285.117 130.883L283.855 134.76H282.474ZM294.105 134.938C292.546 134.938 291.625 134.062 291.625 132.74C291.625 131.403 292.62 130.571 294.328 130.437L296.615 130.259V130.051C296.615 128.833 295.888 128.403 294.907 128.403C293.734 128.403 293.066 128.922 293.066 129.799H291.848C291.848 128.284 293.095 127.289 294.967 127.289C296.764 127.289 297.982 128.239 297.982 130.2V134.76H296.794L296.645 133.586C296.274 134.418 295.279 134.938 294.105 134.938ZM294.506 133.854C295.828 133.854 296.63 132.992 296.63 131.626V131.24L294.774 131.388C293.541 131.507 293.036 131.982 293.036 132.695C293.036 133.468 293.6 133.854 294.506 133.854ZM304.074 127.437V128.715H303.451C302.129 128.715 301.312 129.517 301.312 130.913V134.76H299.916V127.511H301.223L301.312 128.611C301.609 127.853 302.337 127.348 303.332 127.348C303.584 127.348 303.792 127.378 304.074 127.437ZM308.034 134.938C305.925 134.938 304.648 133.364 304.648 131.15C304.648 128.922 305.94 127.289 308.093 127.289C309.207 127.289 310.143 127.779 310.633 128.67V123.828H312.015V134.76H310.767L310.648 133.438C310.173 134.433 309.193 134.938 308.034 134.938ZM308.316 133.675C309.742 133.675 310.619 132.621 310.619 131.106C310.619 129.621 309.742 128.551 308.316 128.551C306.89 128.551 306.059 129.621 306.059 131.106C306.059 132.606 306.89 133.675 308.316 133.675ZM316.123 134.18C316.123 135.25 315.321 136.141 314.267 136.275V135.651C314.876 135.547 315.306 135.146 315.306 134.685C315.202 134.745 315.084 134.775 314.905 134.775C314.415 134.775 313.999 134.418 313.999 133.869C313.999 133.274 314.4 132.844 314.994 132.844C315.618 132.844 316.123 133.364 316.123 134.18ZM323.755 134.76L321.378 127.497H322.819L324.022 131.269C324.186 131.804 324.334 132.354 324.468 132.992C324.587 132.354 324.78 131.745 324.943 131.269L326.161 127.497H327.587L328.79 131.269C328.909 131.626 329.147 132.472 329.265 132.992C329.384 132.413 329.518 131.908 329.726 131.269L330.944 127.497H332.399L329.919 134.76H328.597L327.334 130.868C327.097 130.14 326.948 129.576 326.874 129.175C326.8 129.531 326.666 130.007 326.399 130.883L325.136 134.76H323.755ZM334.992 134.745H333.596V123.828H334.992V128.611C335.453 127.823 336.329 127.289 337.458 127.289C339.315 127.289 340.206 128.462 340.206 130.319V134.76H338.81V130.631C338.81 129.16 338.112 128.566 337.072 128.566C335.72 128.566 334.992 129.546 334.992 130.794V134.745ZM342.823 125.774C342.318 125.774 341.902 125.358 341.902 124.853C341.902 124.333 342.318 123.932 342.823 123.932C343.328 123.932 343.744 124.333 343.744 124.853C343.744 125.358 343.328 125.774 342.823 125.774ZM342.14 134.76V127.497H343.536V134.76H342.14ZM345.088 131.136C345.088 128.863 346.528 127.289 348.652 127.289C350.479 127.289 351.757 128.328 352.009 129.947H350.613C350.375 129.026 349.633 128.536 348.697 128.536C347.375 128.536 346.469 129.546 346.469 131.121C346.469 132.68 347.316 133.69 348.637 133.69C349.633 133.69 350.375 133.17 350.628 132.309H352.024C351.742 133.883 350.39 134.938 348.637 134.938C346.499 134.938 345.088 133.423 345.088 131.136ZM354.893 134.745H353.497V123.828H354.893V128.611C355.354 127.823 356.23 127.289 357.359 127.289C359.216 127.289 360.107 128.462 360.107 130.319V134.76H358.711V130.631C358.711 129.16 358.012 128.566 356.973 128.566C355.621 128.566 354.893 129.546 354.893 130.794V134.745ZM370.261 127.437V128.715H369.637C368.315 128.715 367.498 129.517 367.498 130.913V134.76H366.102V127.511H367.409L367.498 128.611C367.795 127.853 368.523 127.348 369.518 127.348C369.771 127.348 369.979 127.378 370.261 127.437ZM374.443 134.938C372.304 134.938 370.834 133.393 370.834 131.136C370.834 128.863 372.275 127.289 374.384 127.289C376.448 127.289 377.8 128.715 377.8 130.868V131.388L372.186 131.403C372.29 132.933 373.092 133.779 374.473 133.779C375.557 133.779 376.27 133.334 376.508 132.502H377.815C377.458 134.062 376.241 134.938 374.443 134.938ZM374.384 128.462C373.166 128.462 372.394 129.19 372.215 130.467H376.404C376.404 129.264 375.617 128.462 374.384 128.462ZM378.884 131.136C378.884 128.863 380.325 127.289 382.449 127.289C384.276 127.289 385.553 128.328 385.806 129.947H384.41C384.172 129.026 383.429 128.536 382.494 128.536C381.172 128.536 380.266 129.546 380.266 131.121C380.266 132.68 381.112 133.69 382.434 133.69C383.429 133.69 384.172 133.17 384.424 132.309H385.821C385.538 133.883 384.187 134.938 382.434 134.938C380.295 134.938 378.884 133.423 378.884 131.136ZM386.819 131.121C386.819 128.878 388.423 127.303 390.606 127.303C392.775 127.303 394.379 128.878 394.379 131.121C394.379 133.364 392.775 134.938 390.606 134.938C388.423 134.938 386.819 133.364 386.819 131.121ZM388.23 131.121C388.23 132.636 389.195 133.69 390.606 133.69C392.002 133.69 392.983 132.636 392.983 131.121C392.983 129.606 392.002 128.551 390.606 128.551C389.195 128.551 388.23 129.606 388.23 131.121ZM395.464 130.943C395.464 128.893 396.786 127.289 398.895 127.289C400.068 127.289 400.974 127.823 401.435 128.729L401.539 127.497H402.786V134.463C402.786 136.75 401.375 138.206 399.147 138.206C397.172 138.206 395.82 137.092 395.553 135.25H396.949C397.127 136.319 397.929 136.943 399.147 136.943C400.514 136.943 401.405 136.052 401.405 134.671V133.215C400.93 134.062 399.979 134.567 398.836 134.567C396.771 134.567 395.464 132.977 395.464 130.943ZM396.86 130.913C396.86 132.279 397.707 133.349 399.073 133.349C400.484 133.349 401.346 132.339 401.346 130.913C401.346 129.517 400.514 128.507 399.088 128.507C397.692 128.507 396.86 129.576 396.86 130.913ZM406.198 134.76H404.801V127.497H406.064L406.212 128.611C406.673 127.779 407.594 127.289 408.619 127.289C410.535 127.289 411.411 128.462 411.411 130.319V134.76H410.015V130.631C410.015 129.16 409.332 128.566 408.262 128.566C406.955 128.566 406.198 129.502 406.198 130.913V134.76ZM414.028 125.774C413.523 125.774 413.107 125.358 413.107 124.853C413.107 124.333 413.523 123.932 414.028 123.932C414.533 123.932 414.949 124.333 414.949 124.853C414.949 125.358 414.533 125.774 414.028 125.774ZM413.345 134.76V127.497H414.741V134.76H413.345ZM421.981 134.76H416.322V133.631L420.244 128.67H416.322V127.497H421.981V128.64L418.031 133.586H421.981V134.76ZM426.531 134.938C424.392 134.938 422.922 133.393 422.922 131.136C422.922 128.863 424.362 127.289 426.471 127.289C428.536 127.289 429.888 128.715 429.888 130.868V131.388L424.273 131.403C424.377 132.933 425.179 133.779 426.561 133.779C427.645 133.779 428.358 133.334 428.595 132.502H429.903C429.546 134.062 428.328 134.938 426.531 134.938ZM426.471 128.462C425.253 128.462 424.481 129.19 424.303 130.467H428.491C428.491 129.264 427.704 128.462 426.471 128.462ZM430.853 132.651H432.19C432.19 133.393 432.754 133.839 433.675 133.839C434.655 133.839 435.22 133.438 435.22 132.769C435.22 132.279 434.982 131.982 434.225 131.789L432.947 131.492C431.655 131.18 431.046 130.541 431.046 129.472C431.046 128.135 432.175 127.289 433.779 127.289C435.368 127.289 436.408 128.18 436.438 129.561H435.101C435.071 128.833 434.581 128.373 433.735 128.373C432.858 128.373 432.368 128.759 432.368 129.427C432.368 129.918 432.724 130.244 433.437 130.423L434.715 130.735C435.948 131.032 436.557 131.596 436.557 132.68C436.557 134.062 435.368 134.938 433.645 134.938C431.937 134.938 430.853 134.032 430.853 132.651ZM444.29 134.938C442.731 134.938 441.81 134.062 441.81 132.74C441.81 131.403 442.805 130.571 444.513 130.437L446.801 130.259V130.051C446.801 128.833 446.073 128.403 445.092 128.403C443.919 128.403 443.251 128.922 443.251 129.799H442.033C442.033 128.284 443.28 127.289 445.152 127.289C446.949 127.289 448.167 128.239 448.167 130.2V134.76H446.979L446.83 133.586C446.459 134.418 445.464 134.938 444.29 134.938ZM444.691 133.854C446.013 133.854 446.815 132.992 446.815 131.626V131.24L444.959 131.388C443.726 131.507 443.221 131.982 443.221 132.695C443.221 133.468 443.785 133.854 444.691 133.854ZM451.497 134.76H450.101V127.497H451.363L451.512 128.611C451.972 127.779 452.893 127.289 453.918 127.289C455.834 127.289 456.71 128.462 456.71 130.319V134.76H455.314V130.631C455.314 129.16 454.631 128.566 453.561 128.566C452.254 128.566 451.497 129.502 451.497 130.913V134.76ZM461.555 134.938C459.446 134.938 458.169 133.364 458.169 131.15C458.169 128.922 459.461 127.289 461.615 127.289C462.729 127.289 463.664 127.779 464.155 128.67V123.828H465.536V134.76H464.288L464.169 133.438C463.694 134.433 462.714 134.938 461.555 134.938ZM461.837 133.675C463.263 133.675 464.14 132.621 464.14 131.106C464.14 129.621 463.263 128.551 461.837 128.551C460.412 128.551 459.58 129.621 459.58 131.106C459.58 132.606 460.412 133.675 461.837 133.675ZM209.081 149.437V150.715H208.457C207.135 150.715 206.318 151.517 206.318 152.913V156.76H204.922V149.511H206.229L206.318 150.611C206.615 149.853 207.343 149.348 208.338 149.348C208.591 149.348 208.799 149.378 209.081 149.437ZM213.263 156.938C211.125 156.938 209.654 155.393 209.654 153.136C209.654 150.863 211.095 149.289 213.204 149.289C215.269 149.289 216.62 150.715 216.62 152.868V153.388L211.006 153.403C211.11 154.933 211.912 155.779 213.293 155.779C214.377 155.779 215.09 155.334 215.328 154.502H216.635C216.279 156.062 215.061 156.938 213.263 156.938ZM213.204 150.462C211.986 150.462 211.214 151.19 211.035 152.467H215.224C215.224 151.264 214.437 150.462 213.204 150.462ZM219.493 156.76L217.116 149.497H218.557L219.76 153.269C219.923 153.804 220.072 154.354 220.206 154.992C220.324 154.354 220.518 153.745 220.681 153.269L221.899 149.497H223.325L224.528 153.269C224.647 153.626 224.884 154.472 225.003 154.992C225.122 154.413 225.256 153.908 225.464 153.269L226.682 149.497H228.137L225.657 156.76H224.335L223.072 152.868C222.835 152.14 222.686 151.576 222.612 151.175C222.538 151.531 222.404 152.007 222.137 152.883L220.874 156.76H219.493ZM231.124 156.938C229.565 156.938 228.644 156.062 228.644 154.74C228.644 153.403 229.639 152.571 231.347 152.437L233.635 152.259V152.051C233.635 150.833 232.907 150.403 231.927 150.403C230.753 150.403 230.085 150.922 230.085 151.799H228.867C228.867 150.284 230.114 149.289 231.986 149.289C233.783 149.289 235.001 150.239 235.001 152.2V156.76H233.813L233.664 155.586C233.293 156.418 232.298 156.938 231.124 156.938ZM231.526 155.854C232.847 155.854 233.65 154.992 233.65 153.626V153.24L231.793 153.388C230.56 153.507 230.055 153.982 230.055 154.695C230.055 155.468 230.619 155.854 231.526 155.854ZM241.094 149.437V150.715H240.47C239.148 150.715 238.331 151.517 238.331 152.913V156.76H236.935V149.511H238.242L238.331 150.611C238.628 149.853 239.356 149.348 240.351 149.348C240.603 149.348 240.811 149.378 241.094 149.437ZM245.053 156.938C242.944 156.938 241.667 155.364 241.667 153.15C241.667 150.922 242.959 149.289 245.113 149.289C246.227 149.289 247.162 149.779 247.653 150.67V145.828H249.034V156.76H247.786L247.667 155.438C247.192 156.433 246.212 156.938 245.053 156.938ZM245.335 155.675C246.761 155.675 247.638 154.621 247.638 153.106C247.638 151.621 246.761 150.551 245.335 150.551C243.91 150.551 243.078 151.621 243.078 153.106C243.078 154.606 243.91 155.675 245.335 155.675ZM250.454 154.651H251.791C251.791 155.393 252.355 155.839 253.276 155.839C254.256 155.839 254.821 155.438 254.821 154.769C254.821 154.279 254.583 153.982 253.826 153.789L252.548 153.492C251.256 153.18 250.647 152.541 250.647 151.472C250.647 150.135 251.776 149.289 253.38 149.289C254.969 149.289 256.009 150.18 256.039 151.561H254.702C254.672 150.833 254.182 150.373 253.335 150.373C252.459 150.373 251.969 150.759 251.969 151.427C251.969 151.918 252.325 152.244 253.038 152.423L254.316 152.735C255.549 153.032 256.158 153.596 256.158 154.68C256.158 156.062 254.969 156.938 253.246 156.938C251.538 156.938 250.454 156.032 250.454 154.651ZM262.451 147.774C261.946 147.774 261.53 147.358 261.53 146.853C261.53 146.333 261.946 145.932 262.451 145.932C262.956 145.932 263.371 146.333 263.371 146.853C263.371 147.358 262.956 147.774 262.451 147.774ZM261.767 156.76V149.497H263.164V156.76H261.767ZM266.587 156.76H265.191V149.497H266.453L266.602 150.611C267.062 149.779 267.983 149.289 269.008 149.289C270.924 149.289 271.8 150.462 271.8 152.319V156.76H270.404V152.631C270.404 151.16 269.721 150.566 268.651 150.566C267.344 150.566 266.587 151.502 266.587 152.913V156.76ZM275.13 156.76H273.734V149.497H274.996L275.145 150.611C275.605 149.779 276.526 149.289 277.551 149.289C279.467 149.289 280.344 150.462 280.344 152.319V156.76H278.947V152.631C278.947 151.16 278.264 150.566 277.195 150.566C275.888 150.566 275.13 151.502 275.13 152.913V156.76ZM281.802 153.121C281.802 150.878 283.406 149.303 285.59 149.303C287.758 149.303 289.362 150.878 289.362 153.121C289.362 155.364 287.758 156.938 285.59 156.938C283.406 156.938 281.802 155.364 281.802 153.121ZM283.213 153.121C283.213 154.636 284.179 155.69 285.59 155.69C286.986 155.69 287.966 154.636 287.966 153.121C287.966 151.606 286.986 150.551 285.59 150.551C284.179 150.551 283.213 151.606 283.213 153.121ZM292.609 156.76L289.683 149.497H291.168L292.758 153.551C293.01 154.235 293.218 154.844 293.337 155.289C293.456 154.814 293.693 154.19 293.946 153.551L295.565 149.497H297.021L293.991 156.76H292.609ZM299.922 156.938C298.362 156.938 297.441 156.062 297.441 154.74C297.441 153.403 298.436 152.571 300.145 152.437L302.432 152.259V152.051C302.432 150.833 301.704 150.403 300.724 150.403C299.55 150.403 298.882 150.922 298.882 151.799H297.664C297.664 150.284 298.912 149.289 300.783 149.289C302.581 149.289 303.798 150.239 303.798 152.2V156.76H302.61L302.462 155.586C302.09 156.418 301.095 156.938 299.922 156.938ZM300.323 155.854C301.645 155.854 302.447 154.992 302.447 153.626V153.24L300.59 153.388C299.357 153.507 298.852 153.982 298.852 154.695C298.852 155.468 299.417 155.854 300.323 155.854ZM307.666 156.76H306.27V150.67H304.844V149.497H306.27V147.224H307.666V149.497H309.092V150.67H307.666V156.76ZM311.028 147.774C310.523 147.774 310.107 147.358 310.107 146.853C310.107 146.333 310.523 145.932 311.028 145.932C311.533 145.932 311.949 146.333 311.949 146.853C311.949 147.358 311.533 147.774 311.028 147.774ZM310.345 156.76V149.497H311.741V156.76H310.345ZM315.803 156.76L312.877 149.497H314.362L315.951 153.551C316.204 154.235 316.412 154.844 316.531 155.289C316.649 154.814 316.887 154.19 317.14 153.551L318.758 149.497H320.214L317.184 156.76H315.803ZM324.125 156.938C321.987 156.938 320.516 155.393 320.516 153.136C320.516 150.863 321.957 149.289 324.066 149.289C326.131 149.289 327.482 150.715 327.482 152.868V153.388L321.868 153.403C321.972 154.933 322.774 155.779 324.155 155.779C325.239 155.779 325.952 155.334 326.19 154.502H327.497C327.141 156.062 325.923 156.938 324.125 156.938ZM324.066 150.462C322.848 150.462 322.076 151.19 321.897 152.467H326.086C326.086 151.264 325.299 150.462 324.066 150.462ZM332.509 154.651H333.846C333.846 155.393 334.41 155.839 335.331 155.839C336.311 155.839 336.876 155.438 336.876 154.769C336.876 154.279 336.638 153.982 335.881 153.789L334.603 153.492C333.311 153.18 332.702 152.541 332.702 151.472C332.702 150.135 333.831 149.289 335.435 149.289C337.024 149.289 338.064 150.18 338.094 151.561H336.757C336.727 150.833 336.237 150.373 335.39 150.373C334.514 150.373 334.024 150.759 334.024 151.427C334.024 151.918 334.38 152.244 335.093 152.423L336.371 152.735C337.604 153.032 338.213 153.596 338.213 154.68C338.213 156.062 337.024 156.938 335.301 156.938C333.593 156.938 332.509 156.032 332.509 154.651ZM341.811 156.76H340.414V150.67H338.988V149.497H340.414V147.224H341.811V149.497H343.236V150.67H341.811V156.76ZM346.526 156.938C344.967 156.938 344.046 156.062 344.046 154.74C344.046 153.403 345.041 152.571 346.749 152.437L349.037 152.259V152.051C349.037 150.833 348.309 150.403 347.329 150.403C346.155 150.403 345.487 150.922 345.487 151.799H344.269C344.269 150.284 345.516 149.289 347.388 149.289C349.185 149.289 350.403 150.239 350.403 152.2V156.76H349.215L349.066 155.586C348.695 156.418 347.7 156.938 346.526 156.938ZM346.927 155.854C348.249 155.854 349.051 154.992 349.051 153.626V153.24L347.195 153.388C345.962 153.507 345.457 153.982 345.457 154.695C345.457 155.468 346.021 155.854 346.927 155.854ZM356.496 149.437V150.715H355.872C354.55 150.715 353.733 151.517 353.733 152.913V156.76H352.337V149.511H353.644L353.733 150.611C354.03 149.853 354.758 149.348 355.753 149.348C356.005 149.348 356.213 149.378 356.496 149.437ZM360.145 156.76H358.749V150.67H357.323V149.497H358.749V147.224H360.145V149.497H361.571V150.67H360.145V156.76ZM367.844 149.497H369.226V156.76H367.978L367.829 155.661C367.413 156.418 366.448 156.938 365.379 156.938C363.685 156.938 362.735 155.794 362.735 154.012V149.497H364.131V153.551C364.131 155.111 364.799 155.705 365.869 155.705C367.146 155.705 367.844 154.888 367.844 153.329V149.497ZM371.251 160.013V149.497H372.514L372.618 150.804C373.108 149.808 374.088 149.289 375.247 149.289C377.326 149.289 378.618 150.848 378.618 153.076C378.618 155.289 377.4 156.953 375.247 156.953C374.088 156.953 373.123 156.463 372.647 155.572V160.013H371.251ZM372.662 153.136C372.662 154.621 373.524 155.69 374.95 155.69C376.376 155.69 377.222 154.621 377.222 153.136C377.222 151.635 376.376 150.566 374.95 150.566C373.524 150.566 372.662 151.621 372.662 153.136ZM379.563 154.651H380.9C380.9 155.393 381.464 155.839 382.385 155.839C383.366 155.839 383.93 155.438 383.93 154.769C383.93 154.279 383.692 153.982 382.935 153.789L381.658 153.492C380.365 153.18 379.756 152.541 379.756 151.472C379.756 150.135 380.885 149.289 382.489 149.289C384.079 149.289 385.118 150.18 385.148 151.561H383.811C383.782 150.833 383.291 150.373 382.445 150.373C381.568 150.373 381.078 150.759 381.078 151.427C381.078 151.918 381.435 152.244 382.148 152.423L383.425 152.735C384.658 153.032 385.267 153.596 385.267 154.68C385.267 156.062 384.079 156.938 382.356 156.938C380.647 156.938 379.563 156.032 379.563 154.651Z" fill="black" fill-opacity="0.56"/>
<rect x="198.713" y="172.958" width="133.678" height="39.4461" rx="19.723" fill="black"/>
<path d="M236.761 189.232C236.761 187.517 238.143 186.356 240.204 186.356C242.112 186.356 243.343 187.421 243.453 189.149H242.084C242.015 188.153 241.31 187.573 240.19 187.573C238.932 187.573 238.116 188.209 238.116 189.191C238.116 189.993 238.572 190.477 239.512 190.698L241.158 191.085C242.79 191.458 243.619 192.343 243.619 193.754C243.619 195.551 242.223 196.699 240.093 196.699C238.06 196.699 236.705 195.634 236.622 193.92H238.005C238.033 194.874 238.835 195.482 240.093 195.482C241.421 195.482 242.264 194.86 242.264 193.864C242.264 193.076 241.835 192.578 240.881 192.357L239.236 191.984C237.604 191.61 236.761 190.67 236.761 189.232ZM245.184 188.167C244.714 188.167 244.327 187.78 244.327 187.31C244.327 186.826 244.714 186.453 245.184 186.453C245.654 186.453 246.041 186.826 246.041 187.31C246.041 187.78 245.654 188.167 245.184 188.167ZM244.548 196.533V189.771H245.848V196.533H244.548ZM246.753 192.979C246.753 191.071 247.984 189.578 249.947 189.578C251.04 189.578 251.883 190.076 252.312 190.919L252.409 189.771H253.57V196.257C253.57 198.386 252.257 199.741 250.182 199.741C248.343 199.741 247.085 198.704 246.836 196.99H248.136C248.302 197.985 249.048 198.566 250.182 198.566C251.454 198.566 252.284 197.736 252.284 196.45V195.095C251.842 195.883 250.957 196.353 249.892 196.353C247.97 196.353 246.753 194.874 246.753 192.979ZM248.053 192.952C248.053 194.224 248.841 195.22 250.113 195.22C251.427 195.22 252.229 194.279 252.229 192.952C252.229 191.652 251.454 190.712 250.127 190.712C248.827 190.712 248.053 191.707 248.053 192.952ZM256.193 196.533H254.893V189.771H256.068L256.207 190.808C256.635 190.034 257.493 189.578 258.447 189.578C260.231 189.578 261.046 190.67 261.046 192.399V196.533H259.747V192.689C259.747 191.32 259.11 190.767 258.115 190.767C256.898 190.767 256.193 191.638 256.193 192.952V196.533ZM266.967 189.771H268.253V196.533H267.092L266.954 195.51C266.566 196.215 265.668 196.699 264.672 196.699C263.096 196.699 262.211 195.634 262.211 193.975V189.771H263.51V193.546C263.51 194.998 264.133 195.551 265.128 195.551C266.318 195.551 266.967 194.791 266.967 193.339V189.771ZM269.586 199.562V189.771H270.762L270.858 190.988C271.315 190.062 272.227 189.578 273.306 189.578C275.242 189.578 276.445 191.03 276.445 193.104C276.445 195.164 275.311 196.713 273.306 196.713C272.227 196.713 271.329 196.257 270.886 195.427V199.562H269.586ZM270.9 193.159C270.9 194.542 271.702 195.538 273.029 195.538C274.357 195.538 275.145 194.542 275.145 193.159C275.145 191.763 274.357 190.767 273.029 190.767C271.702 190.767 270.9 191.749 270.9 193.159Z" fill="white"/>
<path d="M340.983 189.513C340.983 187.798 342.366 186.637 344.426 186.637C346.335 186.637 347.565 187.701 347.676 189.43H346.307C346.238 188.434 345.533 187.853 344.413 187.853C343.154 187.853 342.338 188.489 342.338 189.471C342.338 190.273 342.795 190.757 343.735 190.979L345.381 191.366C347.012 191.739 347.842 192.624 347.842 194.035C347.842 195.832 346.445 196.98 344.316 196.98C342.283 196.98 340.928 195.915 340.845 194.2H342.228C342.255 195.155 343.057 195.763 344.316 195.763C345.643 195.763 346.487 195.141 346.487 194.145C346.487 193.357 346.058 192.859 345.104 192.638L343.458 192.265C341.827 191.891 340.983 190.951 340.983 189.513ZM351.688 196.98C349.697 196.98 348.328 195.542 348.328 193.44C348.328 191.324 349.669 189.858 351.633 189.858C353.555 189.858 354.813 191.186 354.813 193.191V193.675L349.586 193.689C349.683 195.113 350.43 195.901 351.716 195.901C352.725 195.901 353.389 195.486 353.61 194.712H354.827C354.495 196.164 353.361 196.98 351.688 196.98ZM351.633 190.951C350.499 190.951 349.78 191.628 349.614 192.818H353.513C353.513 191.698 352.781 190.951 351.633 190.951ZM358.63 196.98C356.638 196.98 355.27 195.542 355.27 193.44C355.27 191.324 356.611 189.858 358.574 189.858C360.497 189.858 361.755 191.186 361.755 193.191V193.675L356.528 193.689C356.625 195.113 357.371 195.901 358.657 195.901C359.667 195.901 360.331 195.486 360.552 194.712H361.769C361.437 196.164 360.303 196.98 358.63 196.98ZM358.574 190.951C357.441 190.951 356.721 191.628 356.556 192.818H360.455C360.455 191.698 359.722 190.951 358.574 190.951ZM369.408 196.814H366.103V186.816H369.352C372.339 186.816 374.358 188.835 374.358 191.822C374.358 194.795 372.367 196.814 369.408 196.814ZM369.256 188.061H367.458V195.556H369.311C371.537 195.556 372.948 194.117 372.948 191.822C372.948 189.499 371.537 188.061 369.256 188.061ZM378.226 196.98C376.234 196.98 374.865 195.542 374.865 193.44C374.865 191.324 376.207 189.858 378.17 189.858C380.092 189.858 381.351 191.186 381.351 193.191V193.675L376.124 193.689C376.22 195.113 376.967 195.901 378.253 195.901C379.263 195.901 379.926 195.486 380.148 194.712H381.365C381.033 196.164 379.899 196.98 378.226 196.98ZM378.17 190.951C377.036 190.951 376.317 191.628 376.151 192.818H380.051C380.051 191.698 379.318 190.951 378.17 190.951ZM384.09 196.814H382.79V191.144H381.463V190.052H382.79V187.936H384.09V190.052H385.418V191.144H384.09V196.814ZM387.927 196.98C386.475 196.98 385.618 196.164 385.618 194.933C385.618 193.689 386.545 192.914 388.135 192.79L390.264 192.624V192.43C390.264 191.297 389.587 190.896 388.674 190.896C387.582 190.896 386.959 191.38 386.959 192.195H385.826C385.826 190.785 386.987 189.858 388.729 189.858C390.403 189.858 391.537 190.743 391.537 192.569V196.814H390.43L390.292 195.722C389.946 196.496 389.02 196.98 387.927 196.98ZM388.301 195.97C389.531 195.97 390.278 195.168 390.278 193.896V193.537L388.55 193.675C387.402 193.786 386.932 194.228 386.932 194.892C386.932 195.611 387.457 195.97 388.301 195.97ZM393.42 188.448C392.95 188.448 392.562 188.061 392.562 187.591C392.562 187.107 392.95 186.733 393.42 186.733C393.89 186.733 394.277 187.107 394.277 187.591C394.277 188.061 393.89 188.448 393.42 188.448ZM392.784 196.814V190.052H394.083V196.814H392.784ZM396.745 196.814H395.445V186.637H396.745V196.814ZM397.552 194.85H398.797C398.797 195.542 399.322 195.957 400.179 195.957C401.092 195.957 401.618 195.583 401.618 194.961C401.618 194.505 401.396 194.228 400.691 194.048L399.502 193.772C398.299 193.481 397.732 192.887 397.732 191.891C397.732 190.647 398.783 189.858 400.276 189.858C401.756 189.858 402.724 190.688 402.751 191.974H401.507C401.479 191.297 401.023 190.868 400.235 190.868C399.419 190.868 398.963 191.227 398.963 191.85C398.963 192.306 399.294 192.61 399.958 192.776L401.147 193.067C402.295 193.343 402.862 193.869 402.862 194.878C402.862 196.164 401.756 196.98 400.152 196.98C398.562 196.98 397.552 196.136 397.552 194.85Z" fill="#863C8B"/>
<path d="M340.402 200.064H403.36V201.17H340.402V200.064Z" fill="#863C8B"/>
<path d="M292.396 192.133C292.094 192.133 291.849 192.379 291.849 192.681C291.849 192.984 292.094 193.229 292.396 193.229L292.396 192.133ZM314.698 193.069C314.912 192.855 314.912 192.508 314.698 192.294L311.212 188.807C310.998 188.593 310.651 188.593 310.437 188.807C310.223 189.021 310.223 189.368 310.437 189.582L313.536 192.681L310.437 195.78C310.223 195.994 310.223 196.341 310.437 196.555C310.651 196.769 310.998 196.769 311.212 196.555L314.698 193.069ZM292.396 193.229L314.311 193.229L314.311 192.133L292.396 192.133L292.396 193.229Z" fill="white"/>
<g filter="url(#filter1_b_1902_2270)">
<rect y="74" width="176.165" height="61.1184" rx="9.65298" fill="#863C8B" fill-opacity="0.07"/>
<rect x="0.241325" y="74.2413" width="175.682" height="60.6358" rx="9.41166" stroke="url(#paint0_linear_1902_2270)" stroke-opacity="0.66" stroke-width="0.482649"/>
<path d="M16.5839 96.7852H15.7416L18.7761 88.524H19.803L22.8721 96.7852H22.0067L21.1991 94.5929H17.3915L16.5839 96.7852ZM19.1799 89.6893L17.6454 93.8661H20.9337L19.3876 89.6893C19.353 89.5739 19.2953 89.4355 19.2838 89.3547C19.2722 89.4239 19.2261 89.5739 19.1799 89.6893ZM23.3859 99.2197V91.2008H24.0781L24.1589 92.3315C24.5512 91.4662 25.3358 91.0508 26.2704 91.0508C27.8857 91.0508 28.8549 92.2854 28.8549 93.9699C28.8549 95.6544 27.9203 96.9236 26.2704 96.9236C25.3242 96.9236 24.5743 96.5198 24.182 95.7121V99.2197H23.3859ZM24.1935 93.993C24.1935 95.2737 24.9089 96.2083 26.1319 96.2083C27.3434 96.2083 28.0472 95.2737 28.0472 93.993C28.0472 92.7007 27.3434 91.7777 26.1319 91.7777C24.9089 91.7777 24.1935 92.7007 24.1935 93.993ZM29.6623 99.2197V91.2008H30.3546L30.4354 92.3315C30.8277 91.4662 31.6123 91.0508 32.5468 91.0508C34.1621 91.0508 35.1313 92.2854 35.1313 93.9699C35.1313 95.6544 34.1968 96.9236 32.5468 96.9236C31.6007 96.9236 30.8508 96.5198 30.4585 95.7121V99.2197H29.6623ZM30.47 93.993C30.47 95.2737 31.1854 96.2083 32.4084 96.2083C33.6199 96.2083 34.3237 95.2737 34.3237 93.993C34.3237 92.7007 33.6199 91.7777 32.4084 91.7777C31.1854 91.7777 30.47 92.7007 30.47 93.993ZM36.7695 96.7852H35.9734V88.374H36.7695V96.7852ZM38.3935 89.6662C38.0705 89.6662 37.8051 89.4009 37.8051 89.0778C37.8051 88.7547 38.0705 88.4778 38.3935 88.4778C38.7166 88.4778 38.9935 88.7547 38.9935 89.0778C38.9935 89.4009 38.7166 89.6662 38.3935 89.6662ZM38.0012 96.7852V91.2008H38.7973V96.7852H38.0012ZM39.6037 94.0045C39.6037 92.2507 40.6768 91.0508 42.3036 91.0508C43.5959 91.0508 44.542 91.8008 44.7612 92.9546H43.9651C43.7574 92.1815 43.0882 91.7546 42.3152 91.7546C41.1844 91.7546 40.3883 92.62 40.3883 93.993C40.3883 95.3198 41.1268 96.2083 42.2575 96.2083C43.0882 96.2083 43.7574 95.7467 43.9766 95.0314H44.7843C44.5189 96.1736 43.5266 96.9236 42.2575 96.9236C40.6768 96.9236 39.6037 95.7583 39.6037 94.0045ZM47.1326 96.9236C45.9442 96.9236 45.2404 96.2544 45.2404 95.2737C45.2404 94.2468 46.025 93.6007 47.3288 93.4968L49.1748 93.3468V93.1622C49.1748 92.0661 48.5172 91.72 47.698 91.72C46.7288 91.72 46.1519 92.1584 46.1519 92.9084H45.425C45.425 91.7777 46.348 91.0508 47.7211 91.0508C49.0133 91.0508 49.9594 91.6969 49.9594 93.1738V96.7852H49.2902L49.1864 95.8044C48.8402 96.5082 48.0787 96.9236 47.1326 96.9236ZM47.3172 96.2775C48.4941 96.2775 49.1748 95.4583 49.1748 94.2468V93.9468L47.5249 94.0737C46.475 94.166 46.0481 94.6276 46.0481 95.2506C46.0481 95.9313 46.5557 96.2775 47.3172 96.2775ZM52.2748 96.7852H51.4902V91.87H50.371V91.2008H51.4902V89.4355H52.2748V91.2008H53.394V91.87H52.2748V96.7852ZM54.3614 89.6662C54.0384 89.6662 53.773 89.4009 53.773 89.0778C53.773 88.7547 54.0384 88.4778 54.3614 88.4778C54.6845 88.4778 54.9614 88.7547 54.9614 89.0778C54.9614 89.4009 54.6845 89.6662 54.3614 89.6662ZM53.9691 96.7852V91.2008H54.7653V96.7852H53.9691ZM55.5717 93.993C55.5717 92.2854 56.7716 91.0508 58.41 91.0508C60.0484 91.0508 61.2483 92.2854 61.2483 93.993C61.2483 95.689 60.0484 96.9236 58.41 96.9236C56.7716 96.9236 55.5717 95.689 55.5717 93.993ZM56.3793 93.9814C56.3793 95.2968 57.21 96.2083 58.41 96.2083C59.5984 96.2083 60.4407 95.2968 60.4407 93.9814C60.4407 92.6892 59.5984 91.7661 58.41 91.7661C57.21 91.7661 56.3793 92.6892 56.3793 93.9814ZM62.8563 96.7852H62.0601V91.2008H62.7524L62.8678 92.17C63.237 91.4546 63.9754 91.0508 64.7831 91.0508C66.3176 91.0508 66.9522 91.9623 66.9522 93.3699V96.7852H66.1561V93.543C66.1561 92.2392 65.5677 91.7777 64.6446 91.7777C63.5024 91.7777 62.8563 92.6084 62.8563 93.8661V96.7852ZM73.5043 96.7852H70.989V88.524H73.4812C75.9734 88.524 77.6349 90.1854 77.6349 92.6546C77.6349 95.1237 75.9849 96.7852 73.5043 96.7852ZM73.4466 89.2855H71.8197V96.0237H73.4696C75.4888 96.0237 76.781 94.7083 76.781 92.6546C76.781 90.5893 75.4888 89.2855 73.4466 89.2855ZM82.4237 91.2008H83.2199V96.7852H82.5276L82.4237 95.839C82.1122 96.4852 81.3392 96.9236 80.4623 96.9236C79.147 96.9236 78.4316 96.0237 78.4316 94.6622V91.1892H79.2393V94.4083C79.2393 95.7352 79.8277 96.2083 80.7161 96.2083C81.7892 96.2083 82.4237 95.4929 82.4237 94.166V91.2008ZM86.6463 96.9236C85.0079 96.9236 83.9118 95.7467 83.9118 93.993C83.9118 92.2507 84.9963 91.0508 86.5886 91.0508C88.1001 91.0508 89.1269 92.1238 89.1269 93.7045V94.0968H84.6848C84.7425 95.4583 85.4579 96.2429 86.6578 96.2429C87.5693 96.2429 88.1577 95.8506 88.3654 95.1122H89.1269C88.827 96.289 87.9616 96.9236 86.6463 96.9236ZM86.5886 91.7315C85.5386 91.7315 84.8464 92.4238 84.7079 93.5199H88.3308C88.3308 92.4469 87.6385 91.7315 86.5886 91.7315ZM93.4729 92.493C93.0806 92.493 92.746 92.1584 92.746 91.7777C92.746 91.3854 93.0806 91.0623 93.4729 91.0623C93.8652 91.0623 94.1998 91.3854 94.1998 91.7777C94.1998 92.1584 93.8652 92.493 93.4729 92.493ZM93.4729 96.9121C93.0806 96.9121 92.746 96.589 92.746 96.2083C92.746 95.816 93.0806 95.4814 93.4729 95.4814C93.8652 95.4814 94.1998 95.816 94.1998 96.2083C94.1998 96.589 93.8652 96.9121 93.4729 96.9121ZM99.5275 89.6778H97.6814V88.3509H100.947V96.7852H99.5275V89.6778ZM107.805 96.7736L101.956 96.7852V95.6775L104.713 93.3468C105.855 92.3777 106.236 91.8238 106.236 91.0162C106.236 90.0585 105.717 89.5162 104.828 89.5162C103.905 89.5162 103.329 90.1624 103.317 91.2469H101.852C101.863 89.4009 103.04 88.2009 104.828 88.2009C106.628 88.2009 107.748 89.2278 107.748 90.9354C107.748 92.1123 107.101 93.0007 105.821 94.0968L104.298 95.4006H107.805V96.7736ZM114.375 96.7852H111.34V88.3509H114.294C116.786 88.3509 118.506 90.0701 118.506 92.5853C118.506 95.066 116.821 96.7852 114.375 96.7852ZM114.156 89.7124H112.817V95.4237H114.237C115.921 95.4237 116.948 94.3391 116.948 92.5853C116.948 90.797 115.898 89.7124 114.156 89.7124ZM121.762 96.9351C120.066 96.9351 118.877 95.7006 118.877 93.9353C118.877 92.1469 120.043 90.9123 121.716 90.9123C123.423 90.9123 124.508 92.0546 124.508 93.8314V94.2583L120.216 94.2699C120.32 95.2737 120.85 95.7814 121.785 95.7814C122.558 95.7814 123.066 95.4814 123.227 94.9391H124.531C124.289 96.1852 123.25 96.9351 121.762 96.9351ZM121.727 92.0661C120.897 92.0661 120.389 92.5161 120.25 93.3699H123.112C123.112 92.5853 122.57 92.0661 121.727 92.0661ZM124.838 93.9237C124.838 92.1584 126.004 90.9123 127.688 90.9123C129.246 90.9123 130.307 91.7777 130.457 93.1507H129.05C128.888 92.5046 128.415 92.17 127.746 92.17C126.846 92.17 126.246 92.8507 126.246 93.9237C126.246 94.9968 126.8 95.666 127.7 95.666C128.404 95.666 128.9 95.3198 129.05 94.6968H130.469C130.296 96.0237 129.188 96.9351 127.7 96.9351C125.969 96.9351 124.838 95.7352 124.838 93.9237ZM139.357 96.7736L133.507 96.7852V95.6775L136.265 93.3468C137.407 92.3777 137.788 91.8238 137.788 91.0162C137.788 90.0585 137.269 89.5162 136.38 89.5162C135.457 89.5162 134.88 90.1624 134.869 91.2469H133.404C133.415 89.4009 134.592 88.2009 136.38 88.2009C138.18 88.2009 139.299 89.2278 139.299 90.9354C139.299 92.1123 138.653 93.0007 137.373 94.0968L135.85 95.4006H139.357V96.7736ZM139.806 92.5853C139.806 89.9662 141.213 88.1894 143.371 88.1894C145.528 88.1894 146.948 89.9662 146.948 92.5853C146.948 95.1929 145.609 96.9351 143.371 96.9351C141.132 96.9351 139.806 95.1929 139.806 92.5853ZM141.259 92.5853C141.259 94.5353 142.044 95.6314 143.371 95.6314C144.709 95.6314 145.494 94.5353 145.494 92.5853C145.494 90.5893 144.709 89.4932 143.371 89.4932C142.044 89.4932 141.259 90.5893 141.259 92.5853ZM153.364 96.7736L147.514 96.7852V95.6775L150.271 93.3468C151.414 92.3777 151.794 91.8238 151.794 91.0162C151.794 90.0585 151.275 89.5162 150.387 89.5162C149.464 89.5162 148.887 90.1624 148.875 91.2469H147.41C147.422 89.4009 148.598 88.2009 150.387 88.2009C152.187 88.2009 153.306 89.2278 153.306 90.9354C153.306 92.1123 152.66 93.0007 151.379 94.0968L149.856 95.4006H153.364V96.7736ZM156.383 92.6084H155.356V91.6508L157.525 89.6547H154.018V88.3509H159.371V89.5278L157.318 91.42C158.61 91.6738 159.614 92.62 159.614 94.1083C159.614 95.839 158.264 96.9351 156.556 96.9351C154.906 96.9351 153.626 95.9198 153.626 94.0968H155.079C155.079 95.066 155.679 95.6198 156.579 95.6198C157.502 95.6198 158.114 95.0198 158.114 94.0853C158.114 93.2315 157.56 92.6084 156.383 92.6084Z" fill="#651D6A"/>
<path d="M20.0453 110.89C18.1415 110.89 16.9416 112.297 16.9416 114.409C16.9416 116.555 18.2107 117.859 20.0683 117.859C21.4529 117.859 22.8028 117.19 22.8028 115.205V114.778H19.8145V114.04H23.5874V118.516H22.9298L22.849 117.201C22.4106 118.02 21.3721 118.643 20.0337 118.643C17.6915 118.643 16.0762 116.959 16.0762 114.409C16.0762 111.882 17.6915 110.105 20.0568 110.105C21.799 110.105 23.149 111.098 23.472 112.597H22.5721C22.2259 111.467 21.2568 110.89 20.0453 110.89ZM27.5219 112.851V113.567H27.0834C26.0565 113.567 25.3989 114.259 25.3989 115.32V118.505H24.6028V112.921H25.3527L25.4104 113.786C25.6296 113.186 26.2181 112.794 27.0027 112.794C27.1757 112.794 27.3257 112.805 27.5219 112.851ZM29.4971 118.643C28.3087 118.643 27.6049 117.974 27.6049 116.993C27.6049 115.967 28.3895 115.32 29.6933 115.217L31.5393 115.067V114.882C31.5393 113.786 30.8817 113.44 30.0625 113.44C29.0933 113.44 28.5164 113.878 28.5164 114.628H27.7895C27.7895 113.497 28.7125 112.771 30.0856 112.771C31.3778 112.771 32.3239 113.417 32.3239 114.893V118.505H31.6547L31.5509 117.524C31.2047 118.228 30.4432 118.643 29.4971 118.643ZM29.6817 117.997C30.8586 117.997 31.5393 117.178 31.5393 115.967V115.667L29.8894 115.793C28.8395 115.886 28.4125 116.347 28.4125 116.97C28.4125 117.651 28.9202 117.997 29.6817 117.997ZM34.2561 118.505H33.46V112.921H34.1522L34.2676 113.89C34.6368 113.174 35.3753 112.771 36.1829 112.771C37.7175 112.771 38.3521 113.682 38.3521 115.09V118.505H37.5559V115.263C37.5559 113.959 36.9675 113.497 36.0445 113.497C34.9022 113.497 34.2561 114.328 34.2561 115.586V118.505ZM40.758 118.505H39.9734V113.59H38.8542V112.921H39.9734V111.155H40.758V112.921H41.8772V113.59H40.758V118.505ZM45.3639 118.505H44.5216L47.5561 110.244H48.583L51.6521 118.505H50.7867L49.9791 116.313H46.1715L45.3639 118.505ZM47.9599 111.409L46.4254 115.586H49.7137L48.1676 111.409C48.133 111.294 48.0753 111.155 48.0638 111.074C48.0522 111.144 48.0061 111.294 47.9599 111.409ZM52.962 118.505H52.1659V112.921H52.8582L52.9505 113.717C53.2274 113.128 53.8504 112.771 54.635 112.771C55.5119 112.771 56.1696 113.232 56.4349 113.959C56.6888 113.232 57.3695 112.771 58.2695 112.771C59.481 112.771 60.2771 113.555 60.2771 114.847V118.505H59.504V115.009C59.504 114.051 58.9733 113.486 58.1195 113.486C57.1849 113.486 56.6311 114.19 56.6311 115.055V118.505H55.8465V114.997C55.8465 114.051 55.3042 113.497 54.4619 113.497C53.5274 113.497 52.962 114.19 52.962 115.043V118.505ZM61.0247 115.713C61.0247 114.005 62.2246 112.771 63.863 112.771C65.5014 112.771 66.7014 114.005 66.7014 115.713C66.7014 117.409 65.5014 118.643 63.863 118.643C62.2246 118.643 61.0247 117.409 61.0247 115.713ZM61.8324 115.701C61.8324 117.016 62.6631 117.928 63.863 117.928C65.0514 117.928 65.8937 117.016 65.8937 115.701C65.8937 114.409 65.0514 113.486 63.863 113.486C62.6631 113.486 61.8324 114.409 61.8324 115.701ZM71.3009 112.921H72.097V118.505H71.4047L71.3009 117.559C70.9893 118.205 70.2163 118.643 69.3394 118.643C68.0241 118.643 67.3087 117.743 67.3087 116.382V112.909H68.1164V116.128C68.1164 117.455 68.7048 117.928 69.5933 117.928C70.6663 117.928 71.3009 117.213 71.3009 115.886V112.921ZM74.09 118.505H73.2939V112.921H73.9862L74.1015 113.89C74.4707 113.174 75.2092 112.771 76.0168 112.771C77.5514 112.771 78.186 113.682 78.186 115.09V118.505H77.3899V115.263C77.3899 113.959 76.8014 113.497 75.8784 113.497C74.7361 113.497 74.09 114.328 74.09 115.586V118.505ZM80.5919 118.505H79.8073V113.59H78.6881V112.921H79.8073V111.155H80.5919V112.921H81.7111V113.59H80.5919V118.505ZM85.8209 114.213C85.4286 114.213 85.094 113.878 85.094 113.497C85.094 113.105 85.4286 112.782 85.8209 112.782C86.2132 112.782 86.5478 113.105 86.5478 113.497C86.5478 113.878 86.2132 114.213 85.8209 114.213ZM85.8209 118.632C85.4286 118.632 85.094 118.309 85.094 117.928C85.094 117.536 85.4286 117.201 85.8209 117.201C86.2132 117.201 86.5478 117.536 86.5478 117.928C86.5478 118.309 86.2132 118.632 85.8209 118.632ZM92.637 119.601V118.643C91.0332 118.528 90.0063 117.593 89.9717 116.186H91.4486C91.4601 116.843 91.887 117.259 92.637 117.351V114.893L92.2678 114.813C90.814 114.501 90.0871 113.694 90.0871 112.424C90.0871 111.074 91.1025 110.105 92.637 109.944V108.963H93.5254V109.944C94.9792 110.094 95.8792 111.005 95.9253 112.39H94.4946C94.4715 111.767 94.1254 111.363 93.5254 111.236V113.717L93.9177 113.809C95.3946 114.132 96.0638 114.847 96.0638 116.07C96.0638 117.478 95.0715 118.447 93.5254 118.62V119.601H92.637ZM92.5908 113.509L92.637 113.52V111.224C91.9447 111.34 91.5294 111.755 91.5294 112.378C91.5294 112.99 91.8524 113.347 92.5908 113.509ZM93.6062 115.101L93.5254 115.078V117.328C94.2177 117.19 94.6331 116.786 94.6331 116.197C94.6331 115.609 94.2985 115.251 93.6062 115.101ZM102.384 118.493L96.5345 118.505V117.397L99.2921 115.067C100.434 114.097 100.815 113.544 100.815 112.736C100.815 111.778 100.296 111.236 99.4074 111.236C98.4844 111.236 97.9075 111.882 97.896 112.967H96.4306C96.4422 111.121 97.6191 109.921 99.4074 109.921C101.207 109.921 102.327 110.948 102.327 112.655C102.327 113.832 101.68 114.72 100.4 115.817L98.8767 117.12H102.384V118.493ZM102.833 114.305C102.833 111.686 104.24 109.909 106.398 109.909C108.556 109.909 109.975 111.686 109.975 114.305C109.975 116.913 108.636 118.655 106.398 118.655C104.16 118.655 102.833 116.913 102.833 114.305ZM104.286 114.305C104.286 116.255 105.071 117.351 106.398 117.351C107.736 117.351 108.521 116.255 108.521 114.305C108.521 112.309 107.736 111.213 106.398 111.213C105.071 111.213 104.286 112.309 104.286 114.305ZM112.201 117.997C112.201 118.955 111.509 119.716 110.574 119.832V119.266C111.093 119.174 111.486 118.863 111.486 118.459C111.393 118.505 111.289 118.528 111.151 118.528C110.701 118.528 110.332 118.193 110.332 117.732C110.332 117.178 110.689 116.809 111.209 116.809C111.786 116.809 112.201 117.282 112.201 117.997ZM112.569 114.305C112.569 111.686 113.976 109.909 116.134 109.909C118.292 109.909 119.711 111.686 119.711 114.305C119.711 116.913 118.372 118.655 116.134 118.655C113.896 118.655 112.569 116.913 112.569 114.305ZM114.023 114.305C114.023 116.255 114.807 117.351 116.134 117.351C117.472 117.351 118.257 116.255 118.257 114.305C118.257 112.309 117.472 111.213 116.134 111.213C114.807 111.213 114.023 112.309 114.023 114.305ZM120.242 114.305C120.242 111.686 121.65 109.909 123.808 109.909C125.965 109.909 127.384 111.686 127.384 114.305C127.384 116.913 126.046 118.655 123.808 118.655C121.569 118.655 120.242 116.913 120.242 114.305ZM121.696 114.305C121.696 116.255 122.481 117.351 123.808 117.351C125.146 117.351 125.931 116.255 125.931 114.305C125.931 112.309 125.146 111.213 123.808 111.213C122.481 111.213 121.696 112.309 121.696 114.305ZM127.916 114.305C127.916 111.686 129.324 109.909 131.481 109.909C133.639 109.909 135.058 111.686 135.058 114.305C135.058 116.913 133.72 118.655 131.481 118.655C129.243 118.655 127.916 116.913 127.916 114.305ZM129.37 114.305C129.37 116.255 130.154 117.351 131.481 117.351C132.82 117.351 133.604 116.255 133.604 114.305C133.604 112.309 132.82 111.213 131.481 111.213C130.154 111.213 129.37 112.309 129.37 114.305Z" fill="#651D6A"/>
</g>
<defs>
<filter id="filter0_b_1902_2270" x="162.1" y="-22.9" width="373.601" height="277.467" filterUnits="userSpaceOnUse" color-interpolation-filters="sRGB">
<feFlood flood-opacity="0" result="BackgroundImageFix"/>
<feGaussianBlur in="BackgroundImageFix" stdDeviation="11.45"/>
<feComposite in2="SourceAlpha" operator="in" result="effect1_backgroundBlur_1902_2270"/>
<feBlend mode="normal" in="SourceGraphic" in2="effect1_backgroundBlur_1902_2270" result="shape"/>
</filter>
<filter id="filter1_b_1902_2270" x="-3.10251" y="70.8975" width="182.369" height="67.3237" filterUnits="userSpaceOnUse" color-interpolation-filters="sRGB">
<feFlood flood-opacity="0" result="BackgroundImageFix"/>
<feGaussianBlur in="BackgroundImageFix" stdDeviation="1.55126"/>
<feComposite in2="SourceAlpha" operator="in" result="effect1_backgroundBlur_1902_2270"/>
<feBlend mode="normal" in="SourceGraphic" in2="effect1_backgroundBlur_1902_2270" result="shape"/>
</filter>
<linearGradient id="paint0_linear_1902_2270" x1="88.6295" y1="54.2264" x2="126.091" y2="169.813" gradientUnits="userSpaceOnUse">
<stop stop-color="#863C8B"/>
<stop offset="1" stop-color="#863C8B" stop-opacity="0"/>
</linearGradient>
</defs>
</svg>
