<svg width="49" height="49" viewBox="0 0 49 49" fill="none" xmlns="http://www.w3.org/2000/svg">
<g filter="url(#filter0_b_1902_2552)">
<circle cx="24.4024" cy="24.4024" r="24.4024" fill="#B23C7B" fill-opacity="0.1"/>
<circle cx="24.4024" cy="24.4024" r="24.1524" stroke="url(#paint0_linear_1902_2552)" stroke-opacity="0.22" stroke-width="0.5"/>
</g>
<path d="M29.6283 18.4112V12.3852H35.6543V18.4112H29.6283ZM29.2402 12.194V18.7992H36.0395V12H29.2402V12.194Z" fill="#B23C7B"/>
<path d="M36.0395 25.5981H29.2402V35.1171H36.0395V25.5981Z" fill="#B23C7B"/>
<path d="M17.388 18.4112V12.3852H23.414V18.4112H17.388ZM17 12.194V18.7992H23.7992V12H17V12.194Z" fill="#B23C7B"/>
<path d="M17.388 34.5738V26.1374H23.414V34.5738H17.388ZM17 25.8698V35.1171H23.7992V25.5981H17V25.8698Z" fill="#B23C7B"/>
<defs>
<filter id="filter0_b_1902_2552" x="-6" y="-6" width="60.8047" height="60.8047" filterUnits="userSpaceOnUse" color-interpolation-filters="sRGB">
<feFlood flood-opacity="0" result="BackgroundImageFix"/>
<feGaussianBlur in="BackgroundImageFix" stdDeviation="3"/>
<feComposite in2="SourceAlpha" operator="in" result="effect1_backgroundBlur_1902_2552"/>
<feBlend mode="normal" in="SourceGraphic" in2="effect1_backgroundBlur_1902_2552" result="shape"/>
</filter>
<linearGradient id="paint0_linear_1902_2552" x1="9.5" y1="-14" x2="38.5" y2="69.5" gradientUnits="userSpaceOnUse">
<stop stop-color="#B23C7B"/>
<stop offset="1" stop-color="#B23C7B" stop-opacity="0"/>
</linearGradient>
</defs>
</svg>
